<svg xmlns="http://www.w3.org/2000/svg" class="svg-standalone-icon" width="100%" viewBox="178.64328318482816 115 192.71343363034364 121.3315921623389">
      <g data-paper-data="{&quot;isIcon&quot;:&quot;true&quot;,&quot;iconType&quot;:&quot;icon&quot;,&quot;rawIconId&quot;:&quot;a13111a5-0570-4230-8104-e828abe6bffa&quot;,&quot;selectedEffects&quot;:{&quot;container&quot;:&quot;&quot;,&quot;transformation&quot;:&quot;&quot;,&quot;pattern&quot;:&quot;&quot;},&quot;isDetailed&quot;:false,&quot;fillRule&quot;:&quot;nonzero&quot;,&quot;bounds&quot;:{&quot;x&quot;:178.64328318482816,&quot;y&quot;:115,&quot;width&quot;:192.71343363034364,&quot;height&quot;:121.3315921623389},&quot;iconStyle&quot;:&quot;standalone&quot;,&quot;suitableAsStandaloneIcon&quot;:true}" fill-rule="nonzero">
        <path d="M345.93555,184.87433c-11.84233,23.8623 -17.7635,35.82305 -17.7635,35.76384c-2.42768,4.91457 -6.27644,8.1712 -11.48706,9.76993c-5.21062,1.59871 -10.1844,1.0066 -14.98055,-1.65792c-3.37507,-1.95399 -5.98038,-4.61851 -7.69751,-8.11199l-11.48706,-23.15175c3.5527,4.67772 7.22382,5.74353 11.01337,3.079c1.89477,-1.36187 3.43428,-3.13821 4.67772,-5.38826c21.43462,-43.40214 32.32957,-65.42888 32.68483,-66.02099c2.60531,-4.14481 6.27644,-6.86855 10.95416,-8.23042c4.79615,-1.36187 9.35544,-0.94739 13.79632,1.24344c4.50009,2.25004 7.6383,5.74353 9.41465,10.48046c1.71713,4.67772 1.59871,9.35544 -0.35527,13.97395c-0.5329,1.36187 -6.80934,14.15158 -18.7701,38.25073zM221.94633,191.86131c-1.65792,2.66452 -3.84876,4.20402 -6.6317,4.61851c-2.96058,0.47369 -5.38826,-0.71054 -7.28304,-3.61191c-14.50685,-29.30977 -22.08594,-44.7048 -22.73728,-46.24431c-1.95399,-4.61851 -2.0132,-9.29623 -0.29606,-13.97395c1.71713,-4.73693 4.85536,-8.23042 9.35544,-10.48046c4.44088,-2.19083 9.00017,-2.60531 13.79632,-1.24344c4.67772,1.36187 8.34885,4.0856 10.95416,8.23042l16.99374,34.16512l-9.59229,19.36221zM340.36965,116.07039c-5.98038,1.71713 -10.53967,5.21062 -13.79632,10.42125l-15.45424,31.08612c-10.00677,-20.19117 -15.21739,-30.55321 -15.51345,-31.08612c-4.73693,-7.6383 -11.60548,-11.42785 -20.60565,-11.42785c-9.00017,0 -15.86873,3.78955 -20.60565,11.42785l-15.45424,31.08612c-10.00677,-20.19117 -15.21739,-30.55321 -15.51345,-31.08612c-3.25665,-5.21062 -7.81594,-8.70411 -13.73711,-10.42125c-6.0988,-1.83556 -11.96075,-1.30266 -17.58586,1.5395c-5.68431,2.84216 -9.6515,7.28304 -11.90154,13.26341c-2.19083,5.98038 -2.07241,11.90154 0.35527,17.7635c0.65133,1.5395 7.04619,14.50685 19.18457,38.90206c10.65809,21.55304 16.52005,33.39537 17.64507,35.5862c2.13162,4.20402 5.21062,7.51988 9.23702,9.88835c3.73033,2.19083 7.87515,3.31586 12.31603,3.31586c4.44088,-0.05921 8.58569,-1.18423 12.37524,-3.37507c4.02639,-2.36847 7.1054,-5.74353 9.23702,-10.06598l14.44764,-29.01371l14.44764,29.07292c2.07241,4.14481 5.0922,7.40146 9.05938,9.82914c3.73033,2.30926 7.87515,3.49349 12.31603,3.5527c4.50009,0.05921 8.6449,-1.0066 12.49366,-3.31586c4.14481,-2.42768 7.40146,-5.98038 9.71071,-10.65809c23.3886,-46.95484 35.52699,-71.52767 36.41517,-73.71851c2.42768,-5.86196 2.5461,-11.78312 0.35527,-17.7635c-2.19083,-5.98038 -6.15801,-10.42125 -11.90154,-13.26341c-5.6251,-2.78295 -11.48706,-3.31586 -17.52665,-1.5395z" data-paper-data="{&quot;isPathIcon&quot;:true}" style="fill: rgb(0, 0, 0)"/>
      </g>
    </svg>