<?xml version="1.0" encoding="utf-8" standalone="yes"?>
<!DOCTYPE svg PUBLIC "-//W3C//DTD SVG 1.1//EN" "http://www.w3.org/Graphics/SVG/1.1/DTD/svg11.dtd">
<svg width="780" height="206" viewBox="0 0 780 206" style="fill:none;stroke:none;fill-rule:evenodd;clip-rule:evenodd;stroke-linecap:round;stroke-linejoin:round;stroke-miterlimit:1.5;" version="1.1" xmlns="http://www.w3.org/2000/svg" xmlns:xlink="http://www.w3.org/1999/xlink"><style id="fontImports">@import url("https://fonts.googleapis.com/css2?family=Roboto:wght@400;700&amp;display=block");</style><g id="items" style="isolation: isolate"><g id="blend" style="mix-blend-mode:screen"><g id="g-root--1.cu_sy_qrjumw1sp0f7n-fill" data-item-order="-86396" data-item-id="-1.cu_sy_qrjumw1sp0f7n" data-item-class="Part Fill Stroke ColorFillBlack" data-item-index="-1" data-renderer-id="0" transform="translate(241, 3)"><g id="-1.cu_sy_qrjumw1sp0f7n-fill" stroke="none" fill="url(#gradient-4e4e4e-128737877)"><g><path d="M 125 34L 101 10L 10 166L 34 190L 125 34ZM 125 34L 34 190L 216 190L 125 34Z"></path></g></g></g><g id="g-root-0.line-start_sy_qrjumw1sp0f7o-fill" data-item-order="-86393" data-item-id="0.line-start_sy_qrjumw1sp0f7o" data-item-class="Part Indexed_0 Stroke ColorFillGray ColorStrokeGray" data-item-index="0" data-renderer-id="0" transform="translate(218, 105)"></g><g id="g-root-0.cr-small_cr_hvwue01sp0g0d-fill" data-item-order="-86392" data-item-id="0.cr-small_cr_hvwue01sp0g0d" data-item-class="Shape Stroke Fill Part Indexed_0 ColorFillGray" data-item-index="0" data-renderer-id="0" transform="translate(146, 69)"><g id="0.cr-small_cr_hvwue01sp0g0d-fill" stroke="none" fill="url(#gradient-878787-155498943)"><g><path d="M 10 46C 10 65.882251 26.117749 82 46 82C 65.882251 82 82 65.882251 82 46C 82 26.117749 65.882251 10 46 10C 26.117749 10 10 26.117749 10 46"></path></g></g></g><g id="g-root-2.line_sy_dg3c9k1sp0gso-fill" data-item-order="-86389" data-item-id="2.line_sy_dg3c9k1sp0gso" data-item-class="Part Indexed Stroke" data-item-index="2" data-renderer-id="0" transform="translate(310.5, 105)"></g><g id="g-root-2.cr-small_cr_dg3c9k1sp0gsp-fill" data-item-order="-86388" data-item-id="2.cr-small_cr_dg3c9k1sp0gsp" data-item-class="Shape Stroke Fill Part Indexed" data-item-index="2" data-renderer-id="0" transform="translate(566, 117)"><g id="2.cr-small_cr_dg3c9k1sp0gsp-fill" stroke="none" fill="url(#gradient-dc8433-135949021)"><g><path d="M 10 40C 10.000002 56.568544 23.431459 70.000002 40.000002 70.000002C 56.568544 70.000002 70.000002 56.568544 70.000002 40.000002C 70.000002 23.431459 56.568544 10.000002 40.000002 10.000002C 23.431459 10.000002 10.000002 23.431459 10.000002 40.000002"></path></g></g></g><g id="g-root-1.line_sy_hvwue01sp0g0e-fill" data-item-order="-86385" data-item-id="1.line_sy_hvwue01sp0g0e" data-item-class="Part Indexed Indexed_1 Stroke" data-item-index="1" data-renderer-id="0" transform="translate(310.5, 63)"></g><g id="g-root-1.cr-small_cr_hvwue01sp0g0f-fill" data-item-order="-86384" data-item-id="1.cr-small_cr_hvwue01sp0g0f" data-item-class="Shape Stroke Fill Part Indexed Indexed_1" data-item-index="1" data-renderer-id="0" transform="translate(566, 33)"><defs><linearGradient id="gradient-4e4e4e-128737877" x2="0" y2="1"><stop offset="0" stop-color="#666666"></stop><stop offset="1" stop-color="#353535"></stop></linearGradient><linearGradient id="gradient-878787-155498943" x2="0" y2="1"><stop offset="0" stop-color="#A3A3A3"></stop><stop offset="1" stop-color="#6a6a6a"></stop></linearGradient><linearGradient id="gradient-dc8433-135949021" x2="0" y2="1"><stop offset="0" stop-color="#F99539"></stop><stop offset="1" stop-color="#be722c"></stop></linearGradient><linearGradient id="gradient-e2cc09-3952618" x2="0" y2="1"><stop offset="0" stop-color="#FFE60A"></stop><stop offset="1" stop-color="#c4b108"></stop></linearGradient></defs><g id="1.cr-small_cr_hvwue01sp0g0f-fill" stroke="none" fill="url(#gradient-e2cc09-3952618)"><g><path d="M 10 40C 10.000002 56.568544 23.431459 70.000002 40.000002 70.000002C 56.568544 70.000002 70.000002 56.568544 70.000002 40.000002C 70.000002 23.431459 56.568544 10.000002 40.000002 10.000002C 23.431459 10.000002 10.000002 23.431459 10.000002 40.000002"></path></g></g></g><g id="g-root-squa_zpoue01sop5hm-fill" data-item-order="0" data-item-id="squa_zpoue01sop5hm" data-item-class="Icon Stroke Indexed Indexed_1 InsideFill InsideColorFill ColorStrokeGray" data-item-index="1" data-renderer-id="0" transform="translate(578, 45)"></g><g id="g-root-tx_opendisc_18k2taw1sp0f0s-fill" data-item-order="0" data-item-id="tx_opendisc_18k2taw1sp0f0s" data-item-class="Label Stroke Indexed Indexed_1" data-item-index="1" data-renderer-id="0" transform="translate(638, 39)"><g id="tx_opendisc_18k2taw1sp0f0s-fill" stroke="none" fill="#000000"><g><text style="font: 20px Roboto, sans-serif; white-space: pre;"><tspan x="12" y="34" dominant-baseline="ideographic">Open </tspan><tspan x="12" y="58" dominant-baseline="ideographic">Discussions</tspan></text></g></g></g><g id="g-root-tx_mentalhe_1uqjuu01sp0fsy-fill" data-item-order="0" data-item-id="tx_mentalhe_1uqjuu01sp0fsy" data-item-class="Label Stroke" data-item-index="none" data-renderer-id="0" transform="translate(2, 93)"><g id="tx_mentalhe_1uqjuu01sp0fsy-fill" stroke="none" fill="#000000"><g><text style="font: 20px Roboto, sans-serif; white-space: pre;"><tspan x="15.55" y="34" dominant-baseline="ideographic">Mental Health</tspan></text></g></g></g><g id="g-root-netw_zk2km01sop8ge-fill" data-item-order="0" data-item-id="netw_zk2km01sop8ge" data-item-class="Icon Stroke InsideFill InsideGrayFill ColorStrokeGray" data-item-index="none" data-renderer-id="0" transform="translate(158, 81)"></g><g id="g-root-line_qp21g81sonsow-fill" data-item-order="0" data-item-id="line_qp21g81sonsow" data-item-class="Icon Stroke Indexed InsideFill InsideColorFill ColorStrokeGray" data-item-index="2" data-renderer-id="0" transform="translate(578, 129)"></g><g id="g-root-tx_sentimen_1hfptjs1sp0e83-fill" data-item-order="0" data-item-id="tx_sentimen_1hfptjs1sp0e83" data-item-class="Label Stroke Indexed" data-item-index="2" data-renderer-id="0" transform="translate(638, 123)"><g id="tx_sentimen_1hfptjs1sp0e83-fill" stroke="none" fill="#000000"><g><text style="font: 20px Roboto, sans-serif; white-space: pre;"><tspan x="12" y="34" dominant-baseline="ideographic">Sentiment </tspan><tspan x="12" y="58" dominant-baseline="ideographic">Analysis</tspan></text></g></g></g><g id="g-root--1.cu_sy_qrjumw1sp0f7n-stroke" data-item-order="-86396" data-item-id="-1.cu_sy_qrjumw1sp0f7n" data-item-class="Part Fill Stroke ColorFillBlack" data-item-index="-1" data-renderer-id="0" transform="translate(241, 3)"><g id="-1.cu_sy_qrjumw1sp0f7n-stroke" fill="none" stroke-linecap="round" stroke-linejoin="round" stroke-miterlimit="4" stroke="#ffffff" stroke-width="2"><g><path d="M 125 34L 101 10L 10 166L 34 190L 125 34ZM 125 34L 34 190L 216 190L 125 34Z"></path></g></g></g><g id="g-root-0.line-start_sy_qrjumw1sp0f7o-stroke" data-item-order="-86393" data-item-id="0.line-start_sy_qrjumw1sp0f7o" data-item-class="Part Indexed_0 Stroke ColorFillGray ColorStrokeGray" data-item-index="0" data-renderer-id="0" transform="translate(218, 105)"><g id="0.line-start_sy_qrjumw1sp0f7o-stroke" fill="none" stroke-linecap="round" stroke-linejoin="round" stroke-miterlimit="4" stroke="#FFFFFF" stroke-width="2"><g><path d="M 10 10L 102.5 10"></path></g></g></g><g id="g-root-0.cr-small_cr_hvwue01sp0g0d-stroke" data-item-order="-86392" data-item-id="0.cr-small_cr_hvwue01sp0g0d" data-item-class="Shape Stroke Fill Part Indexed_0 ColorFillGray" data-item-index="0" data-renderer-id="0" transform="translate(146, 69)"><g id="0.cr-small_cr_hvwue01sp0g0d-stroke" fill="none" stroke-linecap="round" stroke-linejoin="round" stroke-miterlimit="4" stroke="#ffffff" stroke-width="2"><g><path d="M 10 46C 10 65.882251 26.117749 82 46 82C 65.882251 82 82 65.882251 82 46C 82 26.117749 65.882251 10 46 10C 26.117749 10 10 26.117749 10 46"></path></g></g></g><g id="g-root-2.line_sy_dg3c9k1sp0gso-stroke" data-item-order="-86389" data-item-id="2.line_sy_dg3c9k1sp0gso" data-item-class="Part Indexed Stroke" data-item-index="2" data-renderer-id="0" transform="translate(310.5, 105)"><g id="2.line_sy_dg3c9k1sp0gso-stroke" fill="none" stroke-linecap="round" stroke-linejoin="round" stroke-miterlimit="4" stroke="#F99539" stroke-width="2"><g><path d="M 257.55 51.55L 104.5 16L 10 10"></path><path d="M 250.2 56.5L 258 51.7L 253.2 43.9" stroke-dasharray="none"></path></g></g></g><g id="g-root-2.cr-small_cr_dg3c9k1sp0gsp-stroke" data-item-order="-86388" data-item-id="2.cr-small_cr_dg3c9k1sp0gsp" data-item-class="Shape Stroke Fill Part Indexed" data-item-index="2" data-renderer-id="0" transform="translate(566, 117)"><g id="2.cr-small_cr_dg3c9k1sp0gsp-stroke" fill="none" stroke-linecap="round" stroke-linejoin="round" stroke-miterlimit="4" stroke="#ffffff" stroke-width="2"><g><path d="M 10 40C 10.000002 56.568544 23.431459 70.000002 40.000002 70.000002C 56.568544 70.000002 70.000002 56.568544 70.000002 40.000002C 70.000002 23.431459 56.568544 10.000002 40.000002 10.000002C 23.431459 10.000002 10.000002 23.431459 10.000002 40.000002"></path></g></g></g><g id="g-root-1.line_sy_hvwue01sp0g0e-stroke" data-item-order="-86385" data-item-id="1.line_sy_hvwue01sp0g0e" data-item-class="Part Indexed Indexed_1 Stroke" data-item-index="1" data-renderer-id="0" transform="translate(310.5, 63)"><g id="1.line_sy_hvwue01sp0g0e-stroke" fill="none" stroke-linecap="round" stroke-linejoin="round" stroke-miterlimit="4" stroke="#FFE60A" stroke-width="2"><g><path d="M 10 51.999932L 97.5 45.999932L 257.55 10.429932"></path><path d="M 253.1 18.129932L 258 10.329932L 250.3 5.429932" stroke-dasharray="none"></path></g></g></g><g id="g-root-1.cr-small_cr_hvwue01sp0g0f-stroke" data-item-order="-86384" data-item-id="1.cr-small_cr_hvwue01sp0g0f" data-item-class="Shape Stroke Fill Part Indexed Indexed_1" data-item-index="1" data-renderer-id="0" transform="translate(566, 33)"><g id="1.cr-small_cr_hvwue01sp0g0f-stroke" fill="none" stroke-linecap="round" stroke-linejoin="round" stroke-miterlimit="4" stroke="#ffffff" stroke-width="2"><g><path d="M 10 40C 10.000002 56.568544 23.431459 70.000002 40.000002 70.000002C 56.568544 70.000002 70.000002 56.568544 70.000002 40.000002C 70.000002 23.431459 56.568544 10.000002 40.000002 10.000002C 23.431459 10.000002 10.000002 23.431459 10.000002 40.000002"></path></g></g></g><g id="g-root-squa_zpoue01sop5hm-stroke" data-item-order="0" data-item-id="squa_zpoue01sop5hm" data-item-class="Icon Stroke Indexed Indexed_1 InsideFill InsideColorFill ColorStrokeGray" data-item-index="1" data-renderer-id="0" transform="translate(578, 45)"><g id="squa_zpoue01sop5hm-stroke" fill="none" stroke-linecap="round" stroke-linejoin="round" stroke-miterlimit="4" stroke="#FFFFFF" stroke-width="2"><g><path d="M 21.571428 42.142857L 11.285714 44.714287L 13.857142 37L 13.857142 13.857142C 13.857142 12.436982 15.00841 11.285714 16.428572 11.285714L 42.142857 11.285714C 43.563019 11.285714 44.714287 12.436982 44.714287 13.857142L 44.714287 39.571426C 44.714287 40.991589 43.563019 42.142857 42.142857 42.142857ZM 34.42857 11.285714L 29.285713 19L 35.714287 22.857143L 31.857143 28"></path></g></g></g><g id="g-root-tx_opendisc_18k2taw1sp0f0s-stroke" data-item-order="0" data-item-id="tx_opendisc_18k2taw1sp0f0s" data-item-class="Label Stroke Indexed Indexed_1" data-item-index="1" data-renderer-id="0" transform="translate(638, 39)"></g><g id="g-root-tx_mentalhe_1uqjuu01sp0fsy-stroke" data-item-order="0" data-item-id="tx_mentalhe_1uqjuu01sp0fsy" data-item-class="Label Stroke" data-item-index="none" data-renderer-id="0" transform="translate(2, 93)"></g><g id="g-root-netw_zk2km01sop8ge-stroke" data-item-order="0" data-item-id="netw_zk2km01sop8ge" data-item-class="Icon Stroke InsideFill InsideGrayFill ColorStrokeGray" data-item-index="none" data-renderer-id="0" transform="translate(158, 81)"><g id="netw_zk2km01sop8ge-stroke" fill="none" stroke-linecap="round" stroke-linejoin="round" stroke-miterlimit="4" stroke="#FFFFFF" stroke-width="2"><g><path d="M 48.880001 27.218C 50.916275 30.004604 52.00938 33.368698 52.000004 36.82C 52.180305 42.275288 49.314098 47.378811 44.562 50.063999L 44.562 57M 27.200001 57L 27.200001 53.799999C 23.939999 53.818001 22.184 53.568001 20.976 52.358002C 19.425999 50.807999 19.76 43.854 19.76 43.854C 19.76 43.854 18.288 43.91 17.176001 43.854C 16.779097 43.841564 16.410118 43.646744 16.176001 43.326C 16.02034 42.989376 15.959488 42.616657 16 42.248001C 15.8 39.478001 19.514 35.344002 19.514 33.964001C 19.506046 32.362228 19.806866 30.77393 20.4 29.285999M 34 11L 34 30M 31 33C 31 34.656853 32.343147 36 34 36C 35.656853 36 37 34.656853 37 33C 37 31.343147 35.656853 30 34 30C 32.343147 30 31 31.343147 31 33ZM 39 25C 39 26.656855 40.343147 28 42 28C 43.656857 28 45 26.656855 45 25C 45 23.343147 43.656857 22 42 22C 40.343147 22 39 23.343147 39 25ZM 23 25C 23 26.656855 24.343147 28 26 28C 27.656855 28 29 26.656855 29 25C 29 23.343147 27.656855 22 26 22C 24.343147 22 23 23.343147 23 25ZM 34 17L 38 17C 40.209137 17 42 18.790861 42 21L 42 22M 34 17L 30 17C 27.790861 17 26 18.790861 26 21L 26 22"></path></g></g></g><g id="g-root-line_qp21g81sonsow-stroke" data-item-order="0" data-item-id="line_qp21g81sonsow" data-item-class="Icon Stroke Indexed InsideFill InsideColorFill ColorStrokeGray" data-item-index="2" data-renderer-id="0" transform="translate(578, 129)"><g id="line_qp21g81sonsow-stroke" fill="none" stroke-linecap="round" stroke-linejoin="round" stroke-miterlimit="4" stroke="#FFFFFF" stroke-width="2"><g><path d="M 10.756 28C 10.756001 37.526913 18.479088 45.25 28.006001 45.25C 37.532913 45.25 45.256001 37.526913 45.256001 28C 45.256001 18.473087 37.532913 10.75 28.006001 10.75C 18.479088 10.75 10.756001 18.473087 10.756001 28ZM 37.756001 36.25L 18.256001 36.25L 18.256001 21.25M 18.25 28.75L 22.283501 26.4445C 22.968449 26.052717 23.839825 26.258595 24.277 26.915501L 27.145 31.217501C 27.283432 31.54801 27.612978 31.757412 27.970993 31.742355C 28.329006 31.727299 28.639807 31.490967 28.749998 31.15L 32.146 24.91C 32.372543 24.494705 32.781719 24.210617 33.25 24.143499L 37.75 23.5"></path></g></g></g><g id="g-root-tx_sentimen_1hfptjs1sp0e83-stroke" data-item-order="0" data-item-id="tx_sentimen_1hfptjs1sp0e83" data-item-class="Label Stroke Indexed" data-item-index="2" data-renderer-id="0" transform="translate(638, 123)"></g></g></g></svg>