<svg xmlns:mydata="http://www.w3.org/2000/svg" mydata:contrastcolor="53565A" mydata:template="InvertedHex1" mydata:presentation="2.5" mydata:layouttype="undefined" mydata:specialfontid="undefined" mydata:id1="193" mydata:id2="792" mydata:companyname="WELLBEE" mydata:companytagline="Your Partner In Wellness" version="1.1" xmlns="http://www.w3.org/2000/svg" xmlns:xlink="http://www.w3.org/1999/xlink" viewBox="0 0 550 470" class="svg-shirt">
<g fill="#eca154" fill-rule="nonzero" stroke="none" stroke-width="1" stroke-linecap="butt" stroke-linejoin="miter" stroke-miterlimit="10" stroke-dasharray="" stroke-dashoffset="0" font-family="none" font-weight="none" font-size="none" text-anchor="none" style="mix-blend-mode: normal">
  <g data-paper-data="{&quot;isGlobalGroup&quot;:true,&quot;bounds&quot;:{&quot;x&quot;:115.29360547434607,&quot;y&quot;:115,&quot;width&quot;:319.4127890513078,&quot;height&quot;:240}}">
    <g data-paper-data="{&quot;isSecondaryText&quot;:true}">
      <path d="M130.22883,329.53823c-1.53569,1.4973 -2.41871,5.06778 0.07678,5.87402c0.84463,0.26875 1.53569,-0.61428 1.30534,-1.42051c-1.30534,-4.4919 2.4955,-4.33833 4.56868,-0.92141c1.57408,2.61067 5.10617,8.9454 9.02219,8.21595c-1.19016,3.22495 -2.34193,6.37312 -3.30174,8.40791c-3.18656,6.68026 -11.4409,3.07138 -6.64186,-1.95801c0.38392,-0.38392 0.42232,-1.07498 -0.19196,-1.45891c-0.61428,-0.38392 -2.03479,-0.57588 -2.72585,0.57588c-2.38032,4.14637 0.72945,8.25434 5.64366,7.87042c2.14997,-0.19196 3.72405,-1.11338 5.25974,-3.57048c1.53569,-2.41871 2.72585,-6.06598 3.9544,-9.32932c1.19016,-3.22495 2.45711,-6.02759 3.53209,-8.06238c1.07498,-2.03479 1.91961,-3.30174 2.72585,-3.68566c0.76785,-0.34553 1.45891,0.15357 1.88122,0.9982c0.38392,0.80624 0.46071,1.91961 0.84463,2.07318c0.38392,0.19196 1.11338,-0.61428 1.22855,-1.45891c0.46071,-3.07138 -4.41511,-5.83563 -7.4481,-1.45891c-1.26695,1.88122 -2.61067,5.18296 -3.91601,8.75344c-3.72405,2.14997 -7.29453,-6.33473 -9.32932,-8.59987c-2.14997,-2.38032 -4.79903,-2.53389 -6.48829,-0.84463z" data-paper-data="{&quot;glyphName&quot;:&quot;Y&quot;,&quot;glyphIndex&quot;:0,&quot;firstGlyphOfWord&quot;:true,&quot;word&quot;:1}">
      </path>
      <path d="M160.36676,344.51121c-0.07678,-0.03839 -0.53749,0.03839 -1.07498,0.03839c0.07678,-0.69106 -0.03839,-1.15177 -0.19196,-1.57408c-0.38392,-0.88302 -1.57408,-0.84463 -2.07318,-0.34553c-0.65267,0.69106 -0.34553,1.72765 0,2.03479c0.34553,0.30714 0.69106,0.42232 1.34373,0.42232c-0.03839,0.07678 -0.03839,0.11518 -0.03839,0.15357c-0.65267,1.9964 -1.57408,4.53029 -3.10977,6.18116c-2.41871,2.68746 -5.22135,3.53209 -5.14457,-1.65087c0.03839,-1.84283 1.07498,-4.33833 2.18836,-5.75884c1.19016,-1.53569 2.11158,-1.53569 2.38032,-1.22855c0.30714,0.30714 0.30714,0.72945 0.11518,1.15177c0,1.03659 1.30534,0.4991 1.57408,-0.38392c0.4991,-1.9964 -2.03479,-2.91781 -4.79903,-1.26695c-3.53209,2.07318 -5.56688,8.71505 -3.57048,11.28733c2.4955,3.22495 9.40611,0.19196 11.17215,-8.4463c0.03839,0 0.03839,-0.03839 0.03839,-0.03839l0.9982,-0.11518c0.53749,-0.07678 0.23035,-0.46071 0.19196,-0.46071zM158.48554,344.0889c0,0.19196 -0.03839,0.34553 -0.03839,0.53749c-0.19196,0 -0.38392,0 -0.4991,-0.07678c-0.76785,-0.26875 -0.76785,-1.15177 -0.42232,-1.45891c0.57588,-0.46071 0.9982,0.38392 0.95981,0.9982z" data-paper-data="{&quot;glyphName&quot;:&quot;o&quot;,&quot;glyphIndex&quot;:1,&quot;word&quot;:1}">
      </path>
      <path d="M171.38535,346.66118c-0.30714,1.11338 -0.76785,2.41871 -1.26695,3.53209c-1.34373,3.07138 -3.72405,4.72225 -2.72585,-0.4991c0.11518,-0.88302 0.38392,-1.80444 0.65267,-2.80264c0.15357,-0.4991 1.61248,-4.22315 1.61248,-4.33833c-0.26875,-0.38392 -1.88122,-0.15357 -2.22675,0.11518c-0.30714,0.15357 -0.46071,0.42232 -0.76785,1.34373c-0.30714,0.88302 -0.76785,2.38032 -1.30534,3.76244c-0.30714,0.57588 -2.9946,6.48829 -4.14637,4.9526c-1.11338,-1.53569 2.34193,-7.87042 2.64907,-9.71325c0.03839,-0.34553 0,-0.53749 -0.19196,-0.61428c-0.19196,-0.03839 -0.61428,-0.07678 -0.88302,-0.03839c-0.38392,0.03839 -0.72945,0.19196 -1.26695,1.26695c-0.53749,1.11338 -1.34373,3.26334 -1.80444,4.9526c-0.57588,1.65087 -0.84463,3.03299 -0.92141,3.80084c-0.03839,0.88302 0.15357,1.30534 0.34553,1.65087c0.46071,0.53749 0.84463,0.72945 1.22855,0.72945c2.22675,0.07678 3.68566,-2.87942 4.56868,-4.29994c0.30714,-0.61428 0.34553,-0.80624 0.38392,-0.57588c0.03839,0.30714 0.03839,1.03659 0.19196,1.61248c0.88302,4.53029 2.4955,3.83923 4.83743,0.38392c1.19016,-1.80444 1.65087,-3.30174 2.30354,-5.25974c0.19196,-0.84463 -0.9982,-0.88302 -1.26695,0.03839z" data-paper-data="{&quot;glyphName&quot;:&quot;u&quot;,&quot;glyphIndex&quot;:2,&quot;word&quot;:1}">
      </path>
      <path d="M184.63068,346.27726c-2.03479,4.4535 -3.9928,5.9892 -6.06598,6.91061c-4.41511,2.11158 0.65267,-6.79543 1.61248,-9.75164c1.11338,-3.4553 -4.56868,1.26695 -6.02759,-1.4973c2.03479,-3.03299 1.07498,-7.37132 -0.80624,-6.25794c-2.57228,1.45891 -2.38032,9.36772 4.26154,8.29273c1.65087,-0.26875 -8.36952,12.55427 0.61428,10.67305c2.03479,-0.42232 6.25794,-4.14637 7.4481,-8.36952c0.15357,-0.57588 -0.80624,-0.65267 -1.03659,0zM173.65049,336.94794c1.26695,-0.23035 0.72945,2.9946 -0.11518,4.41511c-0.57588,-0.57588 -1.11338,-4.22315 0.11518,-4.41511z" data-paper-data="{&quot;glyphName&quot;:&quot;r&quot;,&quot;glyphIndex&quot;:3,&quot;lastGlyphOfWord&quot;:true,&quot;word&quot;:1}">
      </path>
      <path d="M224.40508,332.80157c-0.9982,0 -2.87942,0.34553 -5.25974,0.9982c-0.38392,-1.15177 -1.11338,-2.22675 -1.9964,-3.07138c-1.53569,-1.4973 -3.64727,-2.38032 -5.68206,-2.57228c-2.03479,-0.19196 -4.03119,0.23035 -5.91241,0.95981c-0.4991,0.19196 -0.9982,0.38392 -1.45891,0.61428c-0.11518,-0.19196 -0.26875,-0.42232 -0.42232,-0.57588c-1.07498,-1.30534 -2.80264,-1.30534 -4.26154,-0.76785c-1.72765,0.65267 -4.91421,3.37852 -5.41331,5.18296c-0.19196,0.69106 0.07678,1.11338 0.42232,0.84463c0.34553,-0.26875 0.76785,-1.22855 1.65087,-2.22675c0.88302,-0.95981 2.26514,-1.95801 3.41691,-2.22675c0.88302,-0.19196 1.65087,0.07678 2.26514,1.38212c-0.57588,0.4991 -1.15177,1.11338 -1.68926,1.84283c-1.72765,2.34193 -3.41691,6.06598 -4.22315,9.90521c-2.61067,12.4391 8.33112,18.62025 9.59807,0.88302c0.23035,-3.22495 0.23035,-5.75884 0,-8.33112c-0.11518,-1.26695 -0.26875,-2.57228 -0.53749,-3.68566c0.53749,-0.42232 1.07498,-0.76785 1.61248,-1.03659c3.9544,-2.07318 8.75344,-0.72945 9.9436,3.72405c-2.07318,0.69106 -4.18476,1.61248 -5.4901,2.84103c-3.9928,3.68566 -0.19196,7.71685 4.37672,5.10617c2.03479,-1.19016 3.72405,-3.68566 4.03119,-5.9892c0.07678,-0.53749 0.07678,-1.03659 0.03839,-1.53569c2.07318,-0.61428 4.06958,-1.03659 5.06778,-1.42051c0.9982,-0.42232 0.9982,-0.84463 -0.07678,-0.84463zM202.90541,343.97372c-0.46071,3.9928 -1.80444,7.25614 -2.87942,8.33112c-1.07498,1.03659 -1.88122,-0.19196 -2.22675,-2.72585c-0.38392,-2.57228 -0.34553,-6.48829 1.22855,-10.13556c0.84463,-1.91961 2.07318,-3.80084 3.4937,-5.33653c0.4991,2.64907 0.76785,6.52669 0.38392,9.86682zM216.68823,336.6408c-0.15357,2.18836 -1.53569,4.37672 -2.87942,5.25974c-1.38212,0.92141 -2.76424,0.57588 -2.91781,-0.42232c-0.11518,-0.95981 0.95981,-2.53389 2.57228,-3.76244c0.92141,-0.69106 2.03479,-1.26695 3.22495,-1.72765z" data-paper-data="{&quot;glyphName&quot;:&quot;P&quot;,&quot;glyphIndex&quot;:4,&quot;firstGlyphOfWord&quot;:true,&quot;word&quot;:2}">
      </path>
      <path d="M225.59524,346.35404c-0.76785,1.72765 -1.80444,3.4937 -2.84103,4.4535c-0.38392,0.30714 -0.69106,0.53749 -0.9982,0.65267c-0.26875,0.03839 -0.38392,-0.15357 -0.42232,-0.65267c0,-0.57588 0.11518,-1.42051 0.42232,-2.61067c0.46071,-1.19016 1.03659,-2.64907 1.45891,-3.80084c0.42232,-1.03659 0.69106,-1.76604 0.84463,-2.07318c0,-0.03839 0.03839,-0.03839 0.03839,-0.07678h-2.4955c-0.03839,0.26875 -0.11518,0.4991 -0.30714,0.57588c-0.15357,0.03839 -0.4991,-0.26875 -0.88302,-0.46071c-0.42232,-0.11518 -0.92141,-0.11518 -1.38212,-0.07678c-3.07138,0.46071 -7.14096,9.29093 -5.33653,11.55608c0.34553,0.42232 0.92141,0.69106 1.53569,0.72945c0.65267,0 1.38212,-0.23035 1.95801,-0.72945c0.61428,-0.53749 1.03659,-1.34373 1.38212,-1.72765c0.30714,-0.42232 0.38392,-0.30714 0.46071,-0.11518c0.19196,0.30714 0.38392,0.65267 0.72945,0.92141c0.30714,0.26875 0.80624,0.46071 1.42051,0.38392c0.53749,-0.11518 1.15177,-0.57588 1.84283,-1.07498c1.11338,-1.07498 2.53389,-3.60887 3.57048,-5.87402c0.15357,-0.46071 -0.76785,-0.65267 -0.9982,0zM220.48907,345.89334c-0.72945,2.11158 -1.76604,4.68386 -3.14817,6.68026c-0.4991,0.65267 -1.68926,0.92141 -1.84283,-0.15357c-0.38392,-1.95801 2.07318,-6.79543 3.03299,-7.90881c0.92141,-1.11338 1.72765,-1.19016 2.03479,-0.9982c0.30714,0.30714 0.26875,1.26695 -0.07678,2.38032z" data-paper-data="{&quot;glyphName&quot;:&quot;a&quot;,&quot;glyphIndex&quot;:5,&quot;word&quot;:2}">
      </path>
      <path d="M238.95575,346.27726c-2.03479,4.4535 -3.9928,5.9892 -6.06598,6.91061c-4.41511,2.11158 0.65267,-6.79543 1.61248,-9.75164c1.11338,-3.4553 -4.56868,1.26695 -6.02759,-1.4973c2.03479,-3.03299 1.07498,-7.37132 -0.80624,-6.25794c-2.57228,1.45891 -2.38032,9.36772 4.26154,8.29273c1.65087,-0.26875 -8.36952,12.55427 0.61428,10.67305c2.03479,-0.42232 6.25794,-4.14637 7.4481,-8.36952c0.15357,-0.57588 -0.80624,-0.65267 -1.03659,0zM227.97556,336.94794c1.26695,-0.23035 0.72945,2.9946 -0.11518,4.41511c-0.57588,-0.57588 -1.11338,-4.22315 0.11518,-4.41511z" data-paper-data="{&quot;glyphName&quot;:&quot;r&quot;,&quot;glyphIndex&quot;:6,&quot;word&quot;:2}">
      </path>
      <path d="M251.43324,336.10331c-2.26514,0.76785 -3.72405,0.46071 -6.37312,0.11518c0.07678,-0.15357 0.11518,-0.30714 0.19196,-0.42232c3.53209,-0.72945 8.33112,-9.9436 2.95621,-7.83202c-1.68926,0.69106 -3.80084,3.91601 -5.68206,7.87042c-2.57228,-0.38392 -8.75344,-1.11338 -10.40431,-0.19196c-1.65087,0.92141 0.53749,1.03659 1.80444,0.84463c3.10977,-0.46071 5.14457,-0.07678 8.13916,0.38392c-3.18656,7.10257 -5.52849,16.00958 -3.87762,17.3917c0.38392,0.30714 0.92141,0.4991 1.57408,0.38392c2.45711,-0.46071 5.75884,-6.87222 6.37312,-8.75344c0.07678,-0.53749 -0.65267,-0.57588 -0.88302,0.07678c-0.69106,1.88122 -2.26514,4.56868 -3.72405,5.91241c-0.42232,0.34553 -0.80624,0.65267 -1.07498,0.72945c-0.30714,0.03839 -0.4991,-0.15357 -0.4991,-0.72945c-0.03839,-0.57588 0.11518,-1.53569 0.53749,-2.87942c0.84463,-2.80264 2.4955,-7.83202 4.10797,-11.74804c2.03479,0.30714 5.37492,0.80624 7.25614,-0.46071c0.92141,-0.61428 0.95981,-1.11338 -0.42232,-0.69106zM246.51903,333.30067c0.42232,-0.76785 0.88302,-1.38212 1.30534,-1.95801c2.26514,-3.14817 0.95981,1.9964 -2.14997,3.53209c0.30714,-0.57588 0.57588,-1.11338 0.84463,-1.57408z" data-paper-data="{&quot;glyphName&quot;:&quot;t&quot;,&quot;glyphIndex&quot;:7,&quot;word&quot;:2}">
      </path>
      <path d="M255.69479,346.23887c-0.72945,3.14817 -1.61248,4.83743 -2.68746,5.79723c-1.84283,1.61248 -2.14997,0.61428 -1.57408,-1.22855c0.61428,-2.03479 4.14637,-10.48109 -1.11338,-9.09897c-1.4973,0.46071 -2.53389,2.07318 -3.07138,3.4937c-0.07678,-0.76785 -0.38392,-1.26695 -1.11338,-1.65087c-0.95981,-0.38392 -0.92141,3.03299 -0.9982,3.4553c-0.26875,2.4955 -0.72945,3.87762 -1.53569,6.68026c-0.30714,1.11338 0.9982,1.11338 1.38212,0.11518c0.34553,-0.92141 1.03659,-3.37852 1.72765,-5.4517c1.15177,-3.53209 4.03119,-5.52849 4.37672,-3.30174c0.38392,2.45711 -2.03479,6.02759 -1.34373,8.56148c0.19196,0.76785 0.72945,1.15177 1.88122,0.72945c2.9946,-1.07498 4.68386,-5.60527 4.87582,-8.13916c0.03839,-0.46071 -0.53749,-0.69106 -0.80624,0.03839z" data-paper-data="{&quot;glyphName&quot;:&quot;n&quot;,&quot;glyphIndex&quot;:8,&quot;word&quot;:2}">
      </path>
      <path d="M258.57421,342.62999c-3.60887,1.61248 -6.37312,7.67846 -4.79903,10.40431c1.9964,3.41691 8.98379,1.45891 11.82482,-6.68026c0.07678,-0.30714 -0.46071,-0.57588 -0.84463,-0.03839c-4.18476,9.17575 -10.13556,8.67665 -8.25434,2.57228c1.84283,-0.23035 5.87402,-2.91781 6.56508,-4.41511c0.80624,-1.88122 -1.61248,-3.07138 -4.4919,-1.84283zM256.76977,348.0817c0.42232,-1.07498 1.03659,-2.41871 2.34193,-3.68566c1.30534,-1.30534 2.26514,-1.19016 2.45711,-0.88302c0.76785,1.19016 -1.76604,2.91781 -4.79903,4.56868z" data-paper-data="{&quot;glyphName&quot;:&quot;e&quot;,&quot;glyphIndex&quot;:9,&quot;word&quot;:2}">
      </path>
      <path d="M278.11588,346.27726c-2.03479,4.4535 -3.9928,5.9892 -6.06598,6.91061c-4.41511,2.11158 0.65267,-6.79543 1.61248,-9.75164c1.11338,-3.4553 -4.56868,1.26695 -6.02759,-1.4973c2.03479,-3.03299 1.07498,-7.37132 -0.80624,-6.25794c-2.57228,1.45891 -2.38032,9.36772 4.26154,8.29273c1.65087,-0.26875 -8.36952,12.55427 0.61428,10.67305c2.03479,-0.42232 6.25794,-4.14637 7.4481,-8.36952c0.15357,-0.57588 -0.80624,-0.65267 -1.03659,0zM267.13569,336.94794c1.26695,-0.23035 0.72945,2.9946 -0.11518,4.41511c-0.57588,-0.57588 -1.11338,-4.22315 0.11518,-4.41511z" data-paper-data="{&quot;glyphName&quot;:&quot;r&quot;,&quot;glyphIndex&quot;:10,&quot;lastGlyphOfWord&quot;:true,&quot;word&quot;:2}">
      </path>
      <path d="M290.4398,354.68517c2.76424,-0.76785 6.14276,-5.64366 7.90881,-8.52309c0.30714,-0.72945 -1.4973,-0.76785 -1.84283,0c-4.33833,6.98739 -9.29093,10.48109 -5.37492,-3.87762c1.19016,-3.91601 2.07318,-6.91061 4.22315,-11.28733c2.26514,-4.60707 -2.03479,-3.30174 -2.45711,-2.11158c-1.19016,3.4553 -10.02038,27.02816 -2.45711,25.79961z" data-paper-data="{&quot;glyphName&quot;:&quot;I&quot;,&quot;glyphIndex&quot;:11,&quot;firstGlyphOfWord&quot;:true,&quot;word&quot;:3}">
      </path>
      <path d="M306.75652,346.23887c-0.72945,3.14817 -1.61248,4.83743 -2.68746,5.79723c-1.84283,1.61248 -2.14997,0.61428 -1.57408,-1.22855c0.61428,-2.03479 4.14637,-10.48109 -1.11338,-9.09897c-1.4973,0.46071 -2.53389,2.07318 -3.07138,3.4937c-0.07678,-0.76785 -0.38392,-1.26695 -1.11338,-1.65087c-0.95981,-0.38392 -0.92141,3.03299 -0.9982,3.4553c-0.26875,2.4955 -0.72945,3.87762 -1.53569,6.68026c-0.30714,1.11338 0.9982,1.11338 1.38212,0.11518c0.34553,-0.92141 1.03659,-3.37852 1.72765,-5.4517c1.15177,-3.53209 4.03119,-5.52849 4.37672,-3.30174c0.38392,2.45711 -2.03479,6.02759 -1.34373,8.56148c0.19196,0.76785 0.72945,1.15177 1.88122,0.72945c2.9946,-1.07498 4.68386,-5.60527 4.87582,-8.13916c0.03839,-0.46071 -0.53749,-0.69106 -0.80624,0.03839z" data-paper-data="{&quot;glyphName&quot;:&quot;n&quot;,&quot;glyphIndex&quot;:12,&quot;lastGlyphOfWord&quot;:true,&quot;word&quot;:3}">
      </path>
      <path d="M344.57291,330.11411c-4.4919,-3.53209 -6.02759,4.68386 -2.91781,2.9946c2.91781,-1.61248 1.26695,10.17395 -1.76604,15.97119c-1.65087,3.10977 -3.9928,4.10797 -5.52849,1.19016c-2.18836,-4.29994 -2.11158,-11.74804 -1.61248,-18.92739c0.15357,-0.9982 0.30714,-1.95801 0.42232,-2.95621c-0.57588,-0.88302 -2.57228,-0.38392 -2.57228,0.15357c-1.34373,8.48469 -3.14817,17.66045 -6.91061,22.03717c-6.64186,7.75524 -5.06778,-13.4373 -2.57228,-19.77202c0.61428,-1.53569 1.03659,-2.22675 0.80624,-2.61067c-0.23035,-0.42232 -3.91601,-0.57588 -4.18476,0.4991c-1.15177,4.18476 -5.9508,30.75221 4.991,25.26212c3.30174,-1.65087 5.79723,-6.21955 7.60167,-11.82482c0.46071,5.02939 1.88122,9.09897 4.18476,11.36411c7.64006,7.4481 14.4355,-19.92559 10.05878,-23.3809z" data-paper-data="{&quot;glyphName&quot;:&quot;W&quot;,&quot;glyphIndex&quot;:13,&quot;firstGlyphOfWord&quot;:true,&quot;word&quot;:4}">
      </path>
      <path d="M349.44873,342.62999c-3.60887,1.61248 -6.37312,7.67846 -4.79903,10.40431c1.9964,3.41691 8.98379,1.45891 11.82482,-6.68026c0.07678,-0.30714 -0.46071,-0.57588 -0.84463,-0.03839c-4.18476,9.17575 -10.13556,8.67665 -8.25434,2.57228c1.84283,-0.23035 5.87402,-2.91781 6.56508,-4.41511c0.80624,-1.88122 -1.61248,-3.07138 -4.4919,-1.84283zM347.64429,348.0817c0.42232,-1.07498 1.03659,-2.41871 2.34193,-3.68566c1.30534,-1.30534 2.26514,-1.19016 2.45711,-0.88302c0.76785,1.19016 -1.76604,2.91781 -4.79903,4.56868z" data-paper-data="{&quot;glyphName&quot;:&quot;e&quot;,&quot;glyphIndex&quot;:14,&quot;word&quot;:4}">
      </path>
      <path d="M368.10737,328.07932c-0.95981,-0.57588 -2.30354,-0.53749 -3.4937,-0.07678c-2.57228,0.95981 -3.87762,4.10797 -4.87582,6.48829c-0.95981,-0.07678 -1.88122,-0.15357 -3.03299,-0.19196c-1.15177,-0.03839 -1.57408,0.30714 -1.03659,0.65267c0.57588,0.34553 1.88122,0.65267 3.57048,0.76785c-1.34373,3.26334 -7.56328,16.12476 -4.64547,18.58186c0.34553,0.30714 0.92141,0.4991 1.53569,0.38392c2.4955,-0.46071 4.991,-4.91421 6.48829,-8.71505h-1.11338c-0.92141,2.30354 -2.11158,4.60707 -3.57048,5.9508c-0.42232,0.34553 -0.80624,0.65267 -1.11338,0.72945c-0.26875,0.03839 -0.46071,-0.15357 -0.4991,-0.72945c0,-0.57588 0.15357,-1.53569 0.53749,-2.87942c1.22855,-3.91601 3.14817,-8.83022 4.64547,-12.63106c0.11518,-0.23035 0.19196,-0.46071 0.30714,-0.69106c1.38212,-0.07678 2.76424,-0.34553 3.9928,-0.88302c1.76604,-0.80624 3.10977,-2.18836 3.4553,-3.53209c0.38392,-1.34373 -0.23035,-2.61067 -1.15177,-3.22495zM367.56988,331.88016c-0.4991,0.9982 -1.80444,2.22675 -3.87762,2.57228c-0.42232,0.07678 -0.92141,0.11518 -1.38212,0.15357c0.57588,-1.30534 1.22855,-2.41871 1.91961,-3.22495c0.9982,-1.19016 2.07318,-1.65087 2.80264,-1.4973c0.69106,0.19196 1.03659,0.9982 0.53749,1.9964z" data-paper-data="{&quot;glyphName&quot;:&quot;l&quot;,&quot;glyphIndex&quot;:15,&quot;word&quot;:4}">
      </path>
      <path d="M373.86622,328.07932c-0.95981,-0.57588 -2.30354,-0.53749 -3.4937,-0.07678c-2.57228,0.95981 -3.87762,4.10797 -4.87582,6.48829c-0.95981,-0.07678 -1.88122,-0.15357 -3.03299,-0.19196c-1.15177,-0.03839 -1.57408,0.30714 -1.03659,0.65267c0.57588,0.34553 1.88122,0.65267 3.57048,0.76785c-1.34373,3.26334 -7.56328,16.12476 -4.64547,18.58186c0.34553,0.30714 0.92141,0.4991 1.53569,0.38392c2.4955,-0.46071 4.991,-4.91421 6.48829,-8.71505h-1.11338c-0.92141,2.30354 -2.11158,4.60707 -3.57048,5.9508c-0.42232,0.34553 -0.80624,0.65267 -1.11338,0.72945c-0.26875,0.03839 -0.46071,-0.15357 -0.4991,-0.72945c0,-0.57588 0.15357,-1.53569 0.53749,-2.87942c1.22855,-3.91601 3.14817,-8.83022 4.64547,-12.63106c0.11518,-0.23035 0.19196,-0.46071 0.30714,-0.69106c1.38212,-0.07678 2.76424,-0.34553 3.9928,-0.88302c1.76604,-0.80624 3.10977,-2.18836 3.4553,-3.53209c0.38392,-1.34373 -0.23035,-2.61067 -1.15177,-3.22495zM373.32872,331.88016c-0.4991,0.9982 -1.80444,2.22675 -3.87762,2.57228c-0.42232,0.07678 -0.92141,0.11518 -1.38212,0.15357c0.57588,-1.30534 1.22855,-2.41871 1.91961,-3.22495c0.9982,-1.19016 2.07318,-1.65087 2.80264,-1.4973c0.69106,0.19196 1.03659,0.9982 0.53749,1.9964z" data-paper-data="{&quot;glyphName&quot;:&quot;l&quot;,&quot;glyphIndex&quot;:16,&quot;word&quot;:4}">
      </path>
      <path d="M377.47509,346.23887c-0.72945,3.14817 -1.61248,4.83743 -2.68746,5.79723c-1.84283,1.61248 -2.14997,0.61428 -1.57408,-1.22855c0.61428,-2.03479 4.14637,-10.48109 -1.11338,-9.09897c-1.4973,0.46071 -2.53389,2.07318 -3.07138,3.4937c-0.07678,-0.76785 -0.38392,-1.26695 -1.11338,-1.65087c-0.95981,-0.38392 -0.92141,3.03299 -0.9982,3.4553c-0.26875,2.4955 -0.72945,3.87762 -1.53569,6.68026c-0.30714,1.11338 0.9982,1.11338 1.38212,0.11518c0.34553,-0.92141 1.03659,-3.37852 1.72765,-5.4517c1.15177,-3.53209 4.03119,-5.52849 4.37672,-3.30174c0.38392,2.45711 -2.03479,6.02759 -1.34373,8.56148c0.19196,0.76785 0.72945,1.15177 1.88122,0.72945c2.9946,-1.07498 4.68386,-5.60527 4.87582,-8.13916c0.03839,-0.46071 -0.53749,-0.69106 -0.80624,0.03839z" data-paper-data="{&quot;glyphName&quot;:&quot;n&quot;,&quot;glyphIndex&quot;:17,&quot;word&quot;:4}">
      </path>
      <path d="M380.35451,342.62999c-3.60887,1.61248 -6.37312,7.67846 -4.79903,10.40431c1.9964,3.41691 8.98379,1.45891 11.82482,-6.68026c0.07678,-0.30714 -0.46071,-0.57588 -0.84463,-0.03839c-4.18476,9.17575 -10.13556,8.67665 -8.25434,2.57228c1.84283,-0.23035 5.87402,-2.91781 6.56508,-4.41511c0.80624,-1.88122 -1.61248,-3.07138 -4.4919,-1.84283zM378.55007,348.0817c0.42232,-1.07498 1.03659,-2.41871 2.34193,-3.68566c1.30534,-1.30534 2.26514,-1.19016 2.45711,-0.88302c0.76785,1.19016 -1.76604,2.91781 -4.79903,4.56868z" data-paper-data="{&quot;glyphName&quot;:&quot;e&quot;,&quot;glyphIndex&quot;:18,&quot;word&quot;:4}">
      </path>
      <path d="M392.94718,344.85675c-0.15357,0.15357 -0.23035,0.34553 -0.11518,0.4991c0.07678,0.15357 0.30714,0.26875 0.57588,0.30714c0.26875,0 0.61428,-0.03839 0.88302,-0.30714c0.26875,-0.30714 0.4991,-0.76785 0.57588,-1.19016c0.34553,-1.22855 -0.34553,-2.61067 -1.80444,-2.53389c-1.68926,0.07678 -2.68746,1.11338 -2.9946,2.68746c-0.11518,0.53749 -0.19196,1.26695 -0.23035,2.18836c-0.03839,0.95981 -0.03839,2.11158 -0.15357,3.10977c-0.07678,0.9982 -0.23035,1.80444 -0.53749,2.41871c-0.26875,0.61428 -0.69106,1.03659 -1.11338,1.22855c-0.42232,0.19196 -0.88302,0.11518 -1.19016,-0.11518c-0.34553,-0.19196 -0.57588,-0.53749 -0.69106,-0.95981c-0.11518,-0.42232 -0.19196,-0.95981 -0.15357,-1.53569c0.11518,-1.34373 0.84463,-3.18656 1.57408,-4.29994c0.42232,-0.65267 0,-0.9982 -0.69106,-0.42232c-0.69106,0.53749 -1.72765,3.14817 -1.91961,4.60707c-0.07678,0.76785 -0.03839,1.4973 0.23035,2.11158c1.45891,3.57048 6.10437,1.61248 6.64186,-1.9964c0.26875,-1.53569 -0.07678,-3.64727 0.03839,-5.33653c0.03839,-0.72945 0.19196,-2.30354 0.95981,-2.68746c0.23035,-0.15357 0.53749,-0.19196 0.76785,-0.15357c0.23035,0.07678 0.38392,0.19196 0.4991,0.38392c0.07678,0.23035 0.15357,0.4991 0.07678,0.80624c-0.11518,0.30714 -0.34553,0.61428 -0.57588,0.80624c-0.23035,0.19196 -0.4991,0.26875 -0.65267,0.38392z" data-paper-data="{&quot;glyphName&quot;:&quot;s&quot;,&quot;glyphIndex&quot;:19,&quot;word&quot;:4}">
      </path>
      <path d="M402.39168,344.85675c-0.15357,0.15357 -0.23035,0.34553 -0.11518,0.4991c0.07678,0.15357 0.30714,0.26875 0.57588,0.30714c0.26875,0 0.61428,-0.03839 0.88302,-0.30714c0.26875,-0.30714 0.4991,-0.76785 0.57588,-1.19016c0.34553,-1.22855 -0.34553,-2.61067 -1.80444,-2.53389c-1.68926,0.07678 -2.68746,1.11338 -2.9946,2.68746c-0.11518,0.53749 -0.19196,1.26695 -0.23035,2.18836c-0.03839,0.95981 -0.03839,2.11158 -0.15357,3.10977c-0.07678,0.9982 -0.23035,1.80444 -0.53749,2.41871c-0.26875,0.61428 -0.69106,1.03659 -1.11338,1.22855c-0.42232,0.19196 -0.88302,0.11518 -1.19016,-0.11518c-0.34553,-0.19196 -0.57588,-0.53749 -0.69106,-0.95981c-0.11518,-0.42232 -0.19196,-0.95981 -0.15357,-1.53569c0.11518,-1.34373 0.84463,-3.18656 1.57408,-4.29994c0.42232,-0.65267 0,-0.9982 -0.69106,-0.42232c-0.69106,0.53749 -1.72765,3.14817 -1.91961,4.60707c-0.07678,0.76785 -0.03839,1.4973 0.23035,2.11158c1.45891,3.57048 6.10437,1.61248 6.64186,-1.9964c0.26875,-1.53569 -0.07678,-3.64727 0.03839,-5.33653c0.03839,-0.72945 0.19196,-2.30354 0.95981,-2.68746c0.23035,-0.15357 0.53749,-0.19196 0.76785,-0.15357c0.23035,0.07678 0.38392,0.19196 0.4991,0.38392c0.07678,0.23035 0.15357,0.4991 0.07678,0.80624c-0.11518,0.30714 -0.34553,0.61428 -0.57588,0.80624c-0.23035,0.19196 -0.4991,0.26875 -0.65267,0.38392z" data-paper-data="{&quot;glyphName&quot;:&quot;s&quot;,&quot;glyphIndex&quot;:20,&quot;lastGlyphOfWord&quot;:true,&quot;word&quot;:4}">
      </path>
    </g>
    <g data-paper-data="{&quot;isPrimaryText&quot;:true}">
      <path d="M167.00058,315.99071c-0.10041,0.27611 -0.26356,0.5083 -0.48948,0.69656c-0.22591,0.18826 -0.48948,0.28239 -0.79069,0.28239h-2.59799c-0.30122,0 -0.57106,-0.08785 -0.80952,-0.26356c-0.23846,-0.17571 -0.39535,-0.40162 -0.47065,-0.67774l-12.34986,-47.06502c-0.12551,-0.35142 -0.33259,-0.5083 -0.62126,-0.47065c-0.28867,0.03765 -0.47065,0.19454 -0.54595,0.47065l-13.63003,47.02736c-0.0753,0.27611 -0.23219,0.5083 -0.47065,0.69656c-0.23846,0.18826 -0.52085,0.28239 -0.84717,0.28239h-2.52268c-0.70284,0 -1.14211,-0.31377 -1.31782,-0.9413l-14.19481,-52.29865c-0.0753,-0.30122 -0.06275,-0.55223 0.03765,-0.75304c0.10041,-0.20081 0.32632,-0.30122 0.67774,-0.30122h1.35547c0.30122,0 0.50203,0.06903 0.60243,0.20709c0.10041,0.13806 0.20081,0.34514 0.30122,0.62126l13.21586,48.75936c0.10041,0.37652 0.28239,0.56478 0.54595,0.56478c0.26356,0 0.4581,-0.18826 0.58361,-0.56478l14.23246,-48.45814c0.0753,-0.27611 0.21336,-0.5334 0.41417,-0.77187c0.20081,-0.23846 0.46437,-0.35769 0.79069,-0.35769h1.76964c0.30122,0 0.55223,0.11923 0.75304,0.35769c0.20081,0.23846 0.33887,0.49575 0.41417,0.77187l12.80168,48.45814c0.12551,0.37652 0.31377,0.56478 0.56478,0.56478c0.25101,0 0.43927,-0.18826 0.56478,-0.56478l14.64663,-48.75936c0.10041,-0.25101 0.21336,-0.45182 0.33887,-0.60243c0.12551,-0.15061 0.32632,-0.22591 0.60243,-0.22591h1.35547c0.37652,0 0.61498,0.10668 0.71539,0.32004c0.10041,0.21336 0.08785,0.4581 -0.03765,0.73421z" data-paper-data="{&quot;glyphName&quot;:&quot;W&quot;,&quot;glyphIndex&quot;:0,&quot;firstGlyphOfWord&quot;:true,&quot;word&quot;:1}">
      </path>
      <path d="M222.42434,315.99071c0,0.37652 -0.10041,0.63381 -0.30122,0.77187c-0.20081,0.13806 -0.42672,0.20709 -0.67774,0.20709h-31.62769c-0.37652,0 -0.63381,-0.11296 -0.77187,-0.33887c-0.13806,-0.22591 -0.20709,-0.43927 -0.20709,-0.64008l0.26356,-52.48691c0,-0.55223 0.21336,-0.82834 0.64008,-0.82834h30.9123c0.32632,0 0.52713,0.0753 0.60243,0.22591c0.0753,0.15061 0.12551,0.35142 0.15061,0.60243v1.16721c0,0.12551 -0.0251,0.28867 -0.0753,0.48948c-0.0502,0.20081 -0.25101,0.30122 -0.60243,0.30122h-28.16371c-0.27611,0.0251 -0.46437,0.08785 -0.56478,0.18826c-0.10041,0.10041 -0.15061,0.27611 -0.15061,0.52713l0.11296,19.39079c0,0.52713 0.25101,0.79069 0.75304,0.79069h25.56572c0.22591,0 0.41417,0.05648 0.56478,0.16943c0.15061,0.11296 0.22591,0.33259 0.22591,0.65891l0.03765,1.20486c0,0.32632 -0.0753,0.54595 -0.22591,0.65891c-0.15061,0.11296 -0.35142,0.16943 -0.60243,0.16943h-25.60337c-0.27611,0 -0.46437,0.06903 -0.56478,0.20709c-0.10041,0.13806 -0.15061,0.29494 -0.15061,0.47065l0.15061,23.11834c0,0.47693 0.25101,0.71539 0.75304,0.71539h28.42727c0.37652,0 0.64636,0.09413 0.80952,0.28239c0.16316,0.18826 0.24474,0.35769 0.24474,0.5083z" data-paper-data="{&quot;glyphName&quot;:&quot;E&quot;,&quot;glyphIndex&quot;:1,&quot;word&quot;:1}">
      </path>
      <path d="M264.6699,316.10367c0,0.57733 -0.36397,0.866 -1.09191,0.866h-32.75725c-0.37652,0 -0.63381,-0.11296 -0.77187,-0.33887c-0.13806,-0.22591 -0.20709,-0.43927 -0.20709,-0.64008l0.26356,-52.48691c0,-0.55223 0.21336,-0.82834 0.64008,-0.82834h1.50608c0.40162,0 0.60243,0.27611 0.60243,0.82834l0.26356,49.32414c0,0.32632 0.04393,0.57106 0.13178,0.73421c0.08785,0.16316 0.29494,0.24474 0.62126,0.24474h29.78274c0.27611,0 0.5083,0.0502 0.69656,0.15061c0.18826,0.10041 0.28239,0.28867 0.28239,0.56478z" data-paper-data="{&quot;glyphName&quot;:&quot;L&quot;,&quot;glyphIndex&quot;:2,&quot;word&quot;:1}">
      </path>
      <path d="M306.16242,316.10367c0,0.57733 -0.36397,0.866 -1.09191,0.866h-32.75725c-0.37652,0 -0.63381,-0.11296 -0.77187,-0.33887c-0.13806,-0.22591 -0.20709,-0.43927 -0.20709,-0.64008l0.26356,-52.48691c0,-0.55223 0.21336,-0.82834 0.64008,-0.82834h1.50608c0.40162,0 0.60243,0.27611 0.60243,0.82834l0.26356,49.32414c0,0.32632 0.04393,0.57106 0.13178,0.73421c0.08785,0.16316 0.29494,0.24474 0.62126,0.24474h29.78274c0.27611,0 0.5083,0.0502 0.69656,0.15061c0.18826,0.10041 0.28239,0.28867 0.28239,0.56478z" data-paper-data="{&quot;glyphName&quot;:&quot;L&quot;,&quot;glyphIndex&quot;:3,&quot;word&quot;:1}">
      </path>
      <path d="M352.36144,300.36513c0,2.48503 -0.46437,4.75043 -1.39312,6.79619c-0.92875,2.04576 -2.24657,3.79658 -3.95346,5.25246c-1.70689,1.45588 -3.7903,2.57916 -6.25023,3.36986c-2.45993,0.79069 -5.20853,1.18604 -8.24579,1.18604h-18.48714c-0.37652,0 -0.63381,-0.11296 -0.77187,-0.33887c-0.13806,-0.22591 -0.20709,-0.43927 -0.20709,-0.64008l0.26356,-52.48691c0,-0.55223 0.21336,-0.82834 0.64008,-0.82834h19.42844c2.58544,0 4.90104,0.33887 6.9468,1.0166c2.04576,0.67774 3.78403,1.61276 5.2148,2.80508c1.43078,1.19231 2.52268,2.59799 3.27573,4.21703c0.75304,1.61904 1.12956,3.36986 1.12956,5.25246c0,1.07936 -0.18826,2.18382 -0.56478,3.31338c-0.37652,1.12956 -0.92247,2.20892 -1.63786,3.23807c-0.71539,1.02916 -1.60021,1.97046 -2.65447,2.8239c-1.05426,0.85345 -2.24657,1.54373 -3.57694,2.07086c1.58138,0.50203 3.03726,1.19231 4.36763,2.07086c1.33037,0.87855 2.47876,1.88888 3.44516,3.03099c0.9664,1.14211 1.71317,2.37835 2.24029,3.70872c0.52713,1.33037 0.79069,2.71094 0.79069,4.14172zM316.17786,285.56789c0,0.52713 0.25101,0.79069 0.75304,0.79069h18.37418c1.35547,0 2.72977,-0.29494 4.1229,-0.88482c1.39312,-0.58988 2.64192,-1.3743 3.74638,-2.35325c1.10446,-0.97895 2.00811,-2.09596 2.71094,-3.35103c0.70284,-1.25507 1.05426,-2.54779 1.05426,-3.87816c0,-1.8073 -0.42672,-3.36986 -1.28017,-4.68768c-0.85345,-1.31782 -1.9328,-2.39718 -3.23807,-3.23807c-1.30527,-0.84089 -2.73605,-1.46843 -4.29233,-1.8826c-1.55628,-0.41417 -3.03726,-0.62126 -4.44294,-0.62126h-16.90575c-0.22591,0 -0.39535,0.06275 -0.5083,0.18826c-0.11296,0.12551 -0.16943,0.28867 -0.16943,0.48948zM349.08572,300.36513c0,-1.48098 -0.38907,-2.89293 -1.16721,-4.23585c-0.77814,-1.34292 -1.80102,-2.52268 -3.06864,-3.53929c-1.26762,-1.0166 -2.69212,-1.82612 -4.2735,-2.42855c-1.58138,-0.60243 -3.17532,-0.9162 -4.78181,-0.9413h-18.90131c-0.45182,0 -0.67774,0.23846 -0.67774,0.71539l0.11296,23.04303c0,0.30122 0.06275,0.5083 0.18826,0.62126c0.12551,0.11296 0.33887,0.18198 0.64008,0.20709h14.9855c2.56034,0 4.88849,-0.32004 6.98445,-0.96013c2.09596,-0.64008 3.87816,-1.54373 5.34659,-2.71094c1.46843,-1.16721 2.60426,-2.57916 3.40751,-4.23585c0.80324,-1.65669 1.20486,-3.50164 1.20486,-5.53485z" data-paper-data="{&quot;glyphName&quot;:&quot;B&quot;,&quot;glyphIndex&quot;:4,&quot;word&quot;:1}">
      </path>
      <path d="M393.85396,315.99071c0,0.37652 -0.10041,0.63381 -0.30122,0.77187c-0.20081,0.13806 -0.42672,0.20709 -0.67774,0.20709h-31.62769c-0.37652,0 -0.63381,-0.11296 -0.77187,-0.33887c-0.13806,-0.22591 -0.20709,-0.43927 -0.20709,-0.64008l0.26356,-52.48691c0,-0.55223 0.21336,-0.82834 0.64008,-0.82834h30.9123c0.32632,0 0.52713,0.0753 0.60243,0.22591c0.0753,0.15061 0.12551,0.35142 0.15061,0.60243v1.16721c0,0.12551 -0.0251,0.28867 -0.0753,0.48948c-0.0502,0.20081 -0.25101,0.30122 -0.60243,0.30122h-28.16371c-0.27611,0.0251 -0.46437,0.08785 -0.56478,0.18826c-0.10041,0.10041 -0.15061,0.27611 -0.15061,0.52713l0.11296,19.39079c0,0.52713 0.25101,0.79069 0.75304,0.79069h25.56572c0.22591,0 0.41417,0.05648 0.56478,0.16943c0.15061,0.11296 0.22591,0.33259 0.22591,0.65891l0.03765,1.20486c0,0.32632 -0.0753,0.54595 -0.22591,0.65891c-0.15061,0.11296 -0.35142,0.16943 -0.60243,0.16943h-25.60337c-0.27611,0 -0.46437,0.06903 -0.56478,0.20709c-0.10041,0.13806 -0.15061,0.29494 -0.15061,0.47065l0.15061,23.11834c0,0.47693 0.25101,0.71539 0.75304,0.71539h28.42727c0.37652,0 0.64636,0.09413 0.80952,0.28239c0.16316,0.18826 0.24474,0.35769 0.24474,0.5083z" data-paper-data="{&quot;glyphName&quot;:&quot;E&quot;,&quot;glyphIndex&quot;:5,&quot;word&quot;:1}">
      </path>
      <path d="M434.70639,315.99071c0,0.37652 -0.10041,0.63381 -0.30122,0.77187c-0.20081,0.13806 -0.42672,0.20709 -0.67774,0.20709h-31.62769c-0.37652,0 -0.63381,-0.11296 -0.77187,-0.33887c-0.13806,-0.22591 -0.20709,-0.43927 -0.20709,-0.64008l0.26356,-52.48691c0,-0.55223 0.21336,-0.82834 0.64008,-0.82834h30.9123c0.32632,0 0.52713,0.0753 0.60243,0.22591c0.0753,0.15061 0.12551,0.35142 0.15061,0.60243v1.16721c0,0.12551 -0.0251,0.28867 -0.0753,0.48948c-0.0502,0.20081 -0.25101,0.30122 -0.60243,0.30122h-28.16371c-0.27611,0.0251 -0.46437,0.08785 -0.56478,0.18826c-0.10041,0.10041 -0.15061,0.27611 -0.15061,0.52713l0.11296,19.39079c0,0.52713 0.25101,0.79069 0.75304,0.79069h25.56572c0.22591,0 0.41417,0.05648 0.56478,0.16943c0.15061,0.11296 0.22591,0.33259 0.22591,0.65891l0.03765,1.20486c0,0.32632 -0.0753,0.54595 -0.22591,0.65891c-0.15061,0.11296 -0.35142,0.16943 -0.60243,0.16943h-25.60337c-0.27611,0 -0.46437,0.06903 -0.56478,0.20709c-0.10041,0.13806 -0.15061,0.29494 -0.15061,0.47065l0.15061,23.11834c0,0.47693 0.25101,0.71539 0.75304,0.71539h28.42727c0.37652,0 0.64636,0.09413 0.80952,0.28239c0.16316,0.18826 0.24474,0.35769 0.24474,0.5083z" data-paper-data="{&quot;glyphName&quot;:&quot;E&quot;,&quot;glyphIndex&quot;:6,&quot;lastGlyphOfWord&quot;:true,&quot;word&quot;:1}">
      </path>
    </g>
    <g data-paper-data="{&quot;isIcon&quot;:&quot;true&quot;,&quot;iconType&quot;:&quot;icon&quot;,&quot;rawIconId&quot;:&quot;a13111a5-0570-4230-8104-e828abe6bffa&quot;,&quot;selectedEffects&quot;:{&quot;container&quot;:&quot;&quot;,&quot;transformation&quot;:&quot;&quot;,&quot;pattern&quot;:&quot;&quot;},&quot;isDetailed&quot;:false,&quot;fillRule&quot;:&quot;nonzero&quot;,&quot;bounds&quot;:{&quot;x&quot;:178.64328318482816,&quot;y&quot;:115,&quot;width&quot;:192.71343363034364,&quot;height&quot;:121.3315921623389},&quot;iconStyle&quot;:&quot;standalone&quot;,&quot;suitableAsStandaloneIcon&quot;:true}">
      <path d="M345.93555,184.87433c-11.84233,23.8623 -17.7635,35.82305 -17.7635,35.76384c-2.42768,4.91457 -6.27644,8.1712 -11.48706,9.76993c-5.21062,1.59871 -10.1844,1.0066 -14.98055,-1.65792c-3.37507,-1.95399 -5.98038,-4.61851 -7.69751,-8.11199l-11.48706,-23.15175c3.5527,4.67772 7.22382,5.74353 11.01337,3.079c1.89477,-1.36187 3.43428,-3.13821 4.67772,-5.38826c21.43462,-43.40214 32.32957,-65.42888 32.68483,-66.02099c2.60531,-4.14481 6.27644,-6.86855 10.95416,-8.23042c4.79615,-1.36187 9.35544,-0.94739 13.79632,1.24344c4.50009,2.25004 7.6383,5.74353 9.41465,10.48046c1.71713,4.67772 1.59871,9.35544 -0.35527,13.97395c-0.5329,1.36187 -6.80934,14.15158 -18.7701,38.25073zM221.94633,191.86131c-1.65792,2.66452 -3.84876,4.20402 -6.6317,4.61851c-2.96058,0.47369 -5.38826,-0.71054 -7.28304,-3.61191c-14.50685,-29.30977 -22.08594,-44.7048 -22.73728,-46.24431c-1.95399,-4.61851 -2.0132,-9.29623 -0.29606,-13.97395c1.71713,-4.73693 4.85536,-8.23042 9.35544,-10.48046c4.44088,-2.19083 9.00017,-2.60531 13.79632,-1.24344c4.67772,1.36187 8.34885,4.0856 10.95416,8.23042l16.99374,34.16512l-9.59229,19.36221zM340.36965,116.07039c-5.98038,1.71713 -10.53967,5.21062 -13.79632,10.42125l-15.45424,31.08612c-10.00677,-20.19117 -15.21739,-30.55321 -15.51345,-31.08612c-4.73693,-7.6383 -11.60548,-11.42785 -20.60565,-11.42785c-9.00017,0 -15.86873,3.78955 -20.60565,11.42785l-15.45424,31.08612c-10.00677,-20.19117 -15.21739,-30.55321 -15.51345,-31.08612c-3.25665,-5.21062 -7.81594,-8.70411 -13.73711,-10.42125c-6.0988,-1.83556 -11.96075,-1.30266 -17.58586,1.5395c-5.68431,2.84216 -9.6515,7.28304 -11.90154,13.26341c-2.19083,5.98038 -2.07241,11.90154 0.35527,17.7635c0.65133,1.5395 7.04619,14.50685 19.18457,38.90206c10.65809,21.55304 16.52005,33.39537 17.64507,35.5862c2.13162,4.20402 5.21062,7.51988 9.23702,9.88835c3.73033,2.19083 7.87515,3.31586 12.31603,3.31586c4.44088,-0.05921 8.58569,-1.18423 12.37524,-3.37507c4.02639,-2.36847 7.1054,-5.74353 9.23702,-10.06598l14.44764,-29.01371l14.44764,29.07292c2.07241,4.14481 5.0922,7.40146 9.05938,9.82914c3.73033,2.30926 7.87515,3.49349 12.31603,3.5527c4.50009,0.05921 8.6449,-1.0066 12.49366,-3.31586c4.14481,-2.42768 7.40146,-5.98038 9.71071,-10.65809c23.3886,-46.95484 35.52699,-71.52767 36.41517,-73.71851c2.42768,-5.86196 2.5461,-11.78312 0.35527,-17.7635c-2.19083,-5.98038 -6.15801,-10.42125 -11.90154,-13.26341c-5.6251,-2.78295 -11.48706,-3.31586 -17.52665,-1.5395z" data-paper-data="{&quot;isPathIcon&quot;:true}">
      </path>
    </g>
  </g>
</g></svg>