<?xml version="1.0" encoding="utf-8" standalone="yes"?>
<!DOCTYPE svg PUBLIC "-//W3C//DTD SVG 1.1//EN" "http://www.w3.org/Graphics/SVG/1.1/DTD/svg11.dtd">
<svg width="684" height="373" viewBox="0 0 684 373" style="fill:none;stroke:none;fill-rule:evenodd;clip-rule:evenodd;stroke-linecap:round;stroke-linejoin:round;stroke-miterlimit:1.5;" version="1.1" xmlns="http://www.w3.org/2000/svg" xmlns:xlink="http://www.w3.org/1999/xlink"><style id="fontImports">@import url("https://fonts.googleapis.com/css2?family=Roboto:wght@400;700&amp;display=block");</style><g id="items" style="isolation: isolate"><g id="blend" style="mix-blend-mode:screen"><g id="g-root-ro_v63ys81u2wydj-fill" data-item-order="-30888" data-item-id="ro_v63ys81u2wydj" data-item-class="Shape Stroke Fill" data-item-index="none" data-renderer-id="0" transform="translate(242, 78)"><g id="ro_v63ys81u2wydj-fill" stroke="none" fill="#505050"><g><path d="M 34 10L 142 10C 142 10 166 10 166 34L 166 184C 166 184 166 208 142 208L 34 208C 34 208 10 208 10 184L 10 34C 10 34 10 10 34 10"></path></g></g></g><g id="g-root-ro_dcypco1u2lslp-fill" data-item-order="-9072" data-item-id="ro_dcypco1u2lslp" data-item-class="Shape Stroke Fill" data-item-index="none" data-renderer-id="0" transform="translate(26, 3)"><g id="ro_dcypco1u2lslp-fill" stroke="none" fill="#4f4a20"><g><path d="M 22 10L 166 10C 166 10 178 10 178 22L 178 52C 178 52 178 64 166 64L 22 64C 22 64 10 64 10 52L 10 22C 10 22 10 10 22 10"></path></g></g></g><g id="g-root-ro_zofjko1u2n66j-fill" data-item-order="-9072" data-item-id="ro_zofjko1u2n66j" data-item-class="Shape Stroke Fill" data-item-index="none" data-renderer-id="0" transform="translate(26, 189)"><g id="ro_zofjko1u2n66j-fill" stroke="none" fill="#2b503e"><g><path d="M 22 10L 166 10C 166 10 178 10 178 22L 178 52C 178 52 178 64 166 64L 22 64C 22 64 10 64 10 52L 10 22C 10 22 10 10 22 10"></path></g></g></g><g id="g-root-ro_zofgew1u2zril-fill" data-item-order="-7776" data-item-id="ro_zofgew1u2zril" data-item-class="Shape Stroke Fill" data-item-index="none" data-renderer-id="0" transform="translate(446, 3)"><g id="ro_zofgew1u2zril-fill" stroke="none" fill="#293f64"><g><path d="M 22 10L 142 10C 142 10 154 10 154 22L 154 52C 154 52 154 64 142 64L 22 64C 22 64 10 64 10 52L 10 22C 10 22 10 10 22 10"></path></g></g></g><g id="g-root-ro_1q9h1w81u35g5p-fill" data-item-order="-6480" data-item-id="ro_1q9h1w81u35g5p" data-item-class="Shape Stroke Fill" data-item-index="none" data-renderer-id="0" transform="translate(446, 189)"><g id="ro_1q9h1w81u35g5p-fill" stroke="none" fill="#692e2c"><g><path d="M 22 10L 118 10C 118 10 130 10 130 22L 130 52C 130 52 130 64 118 64L 22 64C 22 64 10 64 10 52L 10 22C 10 22 10 10 22 10"></path></g></g></g><g id="g-root-cu_mdliag1u2n4lr-fill" data-item-order="0" data-item-id="cu_mdliag1u2n4lr" data-item-class="Curve Stroke ColorFillBlack ColorStrokeBlack" data-item-index="none" data-renderer-id="0" transform="translate(398, 30)"></g><g id="g-root-tx_sadness_1cz9hp41u2zt3f-fill" data-item-order="0" data-item-id="tx_sadness_1cz9hp41u2zt3f" data-item-class="Label Stroke" data-item-index="none" data-renderer-id="0" transform="translate(494, 18)"><g id="tx_sadness_1cz9hp41u2zt3f-fill" stroke="none" fill="#4F92FF"><g><text style="font: 20px Roboto, sans-serif; white-space: pre;"><tspan x="13.86" y="34" dominant-baseline="ideographic">Sadness</tspan></text></g></g></g><g id="g-root-tx_upbeatte_1cuw9941u2kdn0-fill" data-item-order="0" data-item-id="tx_upbeatte_1cuw9941u2kdn0" data-item-class="Label Stroke" data-item-index="none" data-renderer-id="0" transform="translate(2, 69)"><g id="tx_upbeatte_1cuw9941u2kdn0-fill" stroke="none" fill="#A3A3A3"><g><text style="font: 20px Roboto, sans-serif; white-space: pre;"><tspan x="17.15" y="34" dominant-baseline="ideographic">Upbeat Tempo</tspan></text></g></g></g><g id="g-root-cu_mdliag1u2n5ds-fill" data-item-order="0" data-item-id="cu_mdliag1u2n5ds" data-item-class="Curve Stroke ColorFillBlack ColorStrokeBlack" data-item-index="none" data-renderer-id="0" transform="translate(152, 57)"></g><g id="g-root-cu_dhyi1k1u2n66j-fill" data-item-order="0" data-item-id="cu_dhyi1k1u2n66j" data-item-class="Curve Stroke ColorFillBlack ColorStrokeBlack" data-item-index="none" data-renderer-id="0" transform="translate(152, 57)"></g><g id="g-root-cu_924zx41u2n6yt-fill" data-item-order="0" data-item-id="cu_924zx41u2n6yt" data-item-class="Curve Stroke ColorFillBlack ColorStrokeBlack" data-item-index="none" data-renderer-id="0" transform="translate(152, 57)"></g><g id="g-root-cu_924zx41u2n6yv-fill" data-item-order="0" data-item-id="cu_924zx41u2n6yv" data-item-class="Curve Stroke ColorFillBlack ColorStrokeBlack" data-item-index="none" data-renderer-id="0" transform="translate(470, 57)"></g><g id="g-root-cu_4mxyvs1u2n4le-fill" data-item-order="0" data-item-id="cu_4mxyvs1u2n4le" data-item-class="Curve Stroke ColorFillBlack ColorStrokeBlack" data-item-index="none" data-renderer-id="0" transform="translate(470, 57)"></g><g id="g-root-cu_1usf0m01u2n570-fill" data-item-order="0" data-item-id="cu_1usf0m01u2n570" data-item-class="Curve Stroke ColorFillBlack ColorStrokeBlack" data-item-index="none" data-renderer-id="0" transform="translate(470, 57)"></g><g id="g-root-cu_v8m1g81u2n6ys-fill" data-item-order="0" data-item-id="cu_v8m1g81u2n6ys" data-item-class="Curve Stroke ColorFillBlack ColorStrokeBlack" data-item-index="none" data-renderer-id="0" transform="translate(194, 30)"></g><g id="g-root-tx_slowtemp_m8lplk1u2kdn3-fill" data-item-order="0" data-item-id="tx_slowtemp_m8lplk1u2kdn3" data-item-class="Label Stroke" data-item-index="none" data-renderer-id="0" transform="translate(494, 69)"><g id="tx_slowtemp_m8lplk1u2kdn3-fill" stroke="none" fill="#A3A3A3"><g><text style="font: 20px Roboto, sans-serif; white-space: pre;"><tspan x="15.28" y="34" dominant-baseline="ideographic">Slow Tempo</tspan></text></g></g></g><g id="g-root-tx_positive_18fp87s1u2kb9h-fill" data-item-order="0" data-item-id="tx_positive_18fp87s1u2kb9h" data-item-class="Label Stroke" data-item-index="none" data-renderer-id="0" transform="translate(14, 105)"><g id="tx_positive_18fp87s1u2kb9h-fill" stroke="none" fill="#A3A3A3"><g><text style="font: 20px Roboto, sans-serif; white-space: pre;"><tspan x="12.56" y="34" dominant-baseline="ideographic">Positive Lyrics</tspan></text></g></g></g><g id="g-root-hear_18gy02g1u2wzye-fill" data-item-order="0" data-item-id="hear_18gy02g1u2wzye" data-item-class="Icon Stroke" data-item-index="none" data-renderer-id="0" transform="translate(296, 102)"></g><g id="g-root-tx_melancho_hteok81u2kb9k-fill" data-item-order="0" data-item-id="tx_melancho_hteok81u2kb9k" data-item-class="Label Stroke" data-item-index="none" data-renderer-id="0" transform="translate(494, 105)"><g id="tx_melancho_hteok81u2kb9k-fill" stroke="none" fill="#A3A3A3"><g><text style="font: 20px Roboto, sans-serif; white-space: pre;"><tspan x="11.91" y="34" dominant-baseline="ideographic">Melancholic Lyrics</tspan></text></g></g></g><g id="g-root-tx_cheerful_v48pug1u2kcue-fill" data-item-order="0" data-item-id="tx_cheerful_v48pug1u2kcue" data-item-class="Label Stroke" data-item-index="none" data-renderer-id="0" transform="translate(2, 141)"><g id="tx_cheerful_v48pug1u2kcue-fill" stroke="none" fill="#A3A3A3"><g><text style="font: 20px Roboto, sans-serif; white-space: pre;"><tspan x="15.83" y="34" dominant-baseline="ideographic">Cheerful Genre</tspan></text></g></g></g><g id="g-root-tx_heavygen_1lseorc1u2kbus-fill" data-item-order="0" data-item-id="tx_heavygen_1lseorc1u2kbus" data-item-class="Label Stroke" data-item-index="none" data-renderer-id="0" transform="translate(494, 327)"><g id="tx_heavygen_1lseorc1u2kbus-fill" stroke="none" fill="#A3A3A3"><g><text style="font: 20px Roboto, sans-serif; white-space: pre;"><tspan x="13.94" y="34" dominant-baseline="ideographic">Heavy Genre</tspan></text></g></g></g><g id="g-root-tx_curatedm_1lseifs1u2wydh-fill" data-item-order="0" data-item-id="tx_curatedm_1lseifs1u2wydh" data-item-class="Label Stroke" data-item-index="none" data-renderer-id="0" transform="translate(266, 156)"><g id="tx_curatedm_1lseifs1u2wydh-fill" stroke="none" fill="#A3A3A3"><g><text style="font: 20px Roboto, sans-serif; white-space: pre;"><tspan x="26.66" y="34" dominant-baseline="ideographic">Curated </tspan><tspan x="19.42" y="58" dominant-baseline="ideographic">Music for </tspan><tspan x="16.58" y="82" dominant-baseline="ideographic">Emotional </tspan><tspan x="33.16" y="106" dominant-baseline="ideographic">States</tspan></text></g></g></g><g id="g-root-cryi_18jfzko1u2ztvo-fill" data-item-order="0" data-item-id="cryi_18jfzko1u2ztvo" data-item-class="Icon Stroke" data-item-index="none" data-renderer-id="0" transform="translate(458, 15)"></g><g id="g-root-1_m8lplk1u2lrt0-fill" data-item-order="0" data-item-id="1_m8lplk1u2lrt0" data-item-class="Icon Stroke" data-item-index="none" data-renderer-id="0" transform="translate(152, 15)"></g><g id="g-root-tx_relaxati_1luwl3s1u2n6yp-fill" data-item-order="0" data-item-id="tx_relaxati_1luwl3s1u2n6yp" data-item-class="Label Stroke" data-item-index="none" data-renderer-id="0" transform="translate(38, 204)"><g id="tx_relaxati_1luwl3s1u2n6yp-fill" stroke="none" fill="#44E095"><g><text style="font: 20px Roboto, sans-serif; white-space: pre;"><tspan x="17.37" y="34" dominant-baseline="ideographic">Relaxation</tspan></text></g></g></g><g id="g-root-1_18k2jtk1u2n5du-fill" data-item-order="0" data-item-id="1_18k2jtk1u2n5du" data-item-class="Icon Stroke" data-item-index="none" data-renderer-id="0" transform="translate(152, 201)"></g><g id="g-root-cu_qtf0ew1u2n4lh-fill" data-item-order="0" data-item-id="cu_qtf0ew1u2n4lh" data-item-class="Curve Stroke ColorFillBlack ColorStrokeBlack" data-item-index="none" data-renderer-id="0" transform="translate(194, 210)"></g><g id="g-root-cu_qtf0ew1u2n4le-fill" data-item-order="0" data-item-id="cu_qtf0ew1u2n4le" data-item-class="Curve Stroke ColorFillBlack ColorStrokeBlack" data-item-index="none" data-renderer-id="0" transform="translate(398, 210)"></g><g id="g-root-angr_400601u35fk4-fill" data-item-order="0" data-item-id="angr_400601u35fk4" data-item-class="Icon Stroke" data-item-index="none" data-renderer-id="0" transform="translate(458, 201)"></g><g id="g-root-tx_anger_dfgijc1u35dz7-fill" data-item-order="0" data-item-id="tx_anger_dfgijc1u35dz7" data-item-class="Label Stroke" data-item-index="none" data-renderer-id="0" transform="translate(494, 204)"><g id="tx_anger_dfgijc1u35dz7-fill" stroke="none" fill="#FD6A65"><g><text style="font: 20px Roboto, sans-serif; white-space: pre;"><tspan x="13.66" y="34" dominant-baseline="ideographic">Anger</tspan></text></g></g></g><g id="g-root-tx_slowtemp_1lseorc1u2kbut-fill" data-item-order="0" data-item-id="tx_slowtemp_1lseorc1u2kbut" data-item-class="Label Stroke" data-item-index="none" data-renderer-id="0" transform="translate(26, 255)"><g id="tx_slowtemp_1lseorc1u2kbut-fill" stroke="none" fill="#A3A3A3"><g><text style="font: 20px Roboto, sans-serif; white-space: pre;"><tspan x="15.28" y="34" dominant-baseline="ideographic">Slow Tempo</tspan></text></g></g></g><g id="g-root-cu_1lws0d41u2n6rp-fill" data-item-order="0" data-item-id="cu_1lws0d41u2n6rp" data-item-class="Curve Stroke ColorFillBlack ColorStrokeBlack" data-item-index="none" data-renderer-id="0" transform="translate(152, 243)"></g><g id="g-root-cu_1hhkzbs1u2n4e8-fill" data-item-order="0" data-item-id="cu_1hhkzbs1u2n4e8" data-item-class="Curve Stroke ColorFillBlack ColorStrokeBlack" data-item-index="none" data-renderer-id="0" transform="translate(152, 243)"></g><g id="g-root-cu_1hhkzbs1u2n4ea-fill" data-item-order="0" data-item-id="cu_1hhkzbs1u2n4ea" data-item-class="Curve Stroke ColorFillBlack ColorStrokeBlack" data-item-index="none" data-renderer-id="0" transform="translate(152, 243)"></g><g id="g-root-cu_1qclihk1u2n5za-fill" data-item-order="0" data-item-id="cu_1qclihk1u2n5za" data-item-class="Curve Stroke ColorFillBlack ColorStrokeBlack" data-item-index="none" data-renderer-id="0" transform="translate(470, 243)"></g><g id="g-root-cu_1qclihk1u2n5zd-fill" data-item-order="0" data-item-id="cu_1qclihk1u2n5zd" data-item-class="Curve Stroke ColorFillBlack ColorStrokeBlack" data-item-index="none" data-renderer-id="0" transform="translate(470, 243)"></g><g id="g-root-cu_1lws0d41u2n6rn-fill" data-item-order="0" data-item-id="cu_1lws0d41u2n6rn" data-item-class="Curve Stroke ColorFillBlack ColorStrokeBlack" data-item-index="none" data-renderer-id="0" transform="translate(470, 243)"></g><g id="g-root-tx_fasttemp_24o2g1u2kdmq-fill" data-item-order="0" data-item-id="tx_fasttemp_24o2g1u2kdmq" data-item-class="Label Stroke" data-item-index="none" data-renderer-id="0" transform="translate(494, 255)"><g id="tx_fasttemp_24o2g1u2kdmq-fill" stroke="none" fill="#A3A3A3"><g><text style="font: 20px Roboto, sans-serif; white-space: pre;"><tspan x="17.63" y="34" dominant-baseline="ideographic">Fast Tempo</tspan></text></g></g></g><g id="g-root-tx_calmlyri_1cwroig1u2kcni-fill" data-item-order="0" data-item-id="tx_calmlyri_1cwroig1u2kcni" data-item-class="Label Stroke" data-item-index="none" data-renderer-id="0" transform="translate(38, 291)"><g id="tx_calmlyri_1cwroig1u2kcni-fill" stroke="none" fill="#A3A3A3"><g><text style="font: 20px Roboto, sans-serif; white-space: pre;"><tspan x="12.72" y="34" dominant-baseline="ideographic">Calm Lyrics</tspan></text></g></g></g><g id="g-root-tx_aggressi_1q7lpso1u2ke8b-fill" data-item-order="0" data-item-id="tx_aggressi_1q7lpso1u2ke8b" data-item-class="Label Stroke" data-item-index="none" data-renderer-id="0" transform="translate(494, 291)"><g id="tx_aggressi_1q7lpso1u2ke8b-fill" stroke="none" fill="#A3A3A3"><g><text style="font: 20px Roboto, sans-serif; white-space: pre;"><tspan x="16.71" y="34" dominant-baseline="ideographic">Aggressive Lyrics</tspan></text></g></g></g><g id="g-root-tx_ambientg_18gy6e01u2kdfr-fill" data-item-order="0" data-item-id="tx_ambientg_18gy6e01u2kdfr" data-item-class="Label Stroke" data-item-index="none" data-renderer-id="0" transform="translate(2, 327)"><g id="tx_ambientg_18gy6e01u2kdfr-fill" stroke="none" fill="#A3A3A3"><g><text style="font: 20px Roboto, sans-serif; white-space: pre;"><tspan x="15.9" y="34" dominant-baseline="ideographic">Ambient Genre</tspan></text></g></g></g><g id="g-root-tx_happines_qof7q01u2lr0r-fill" data-item-order="0" data-item-id="tx_happines_qof7q01u2lr0r" data-item-class="Label Stroke" data-item-index="none" data-renderer-id="0" transform="translate(38, 18)"><g id="tx_happines_qof7q01u2lr0r-fill" stroke="none" fill="#FFE60A"><g><text style="font: 20px Roboto, sans-serif; white-space: pre;"><tspan x="16.66" y="34" dominant-baseline="ideographic">Happiness</tspan></text></g></g></g><g id="g-root-tx_softgenr_ddl6fs1u2kc1t-fill" data-item-order="0" data-item-id="tx_softgenr_ddl6fs1u2kc1t" data-item-class="Label Stroke" data-item-index="none" data-renderer-id="0" transform="translate(494, 141)"><g id="tx_softgenr_ddl6fs1u2kc1t-fill" stroke="none" fill="#A3A3A3"><g><text style="font: 20px Roboto, sans-serif; white-space: pre;"><tspan x="16.93" y="34" dominant-baseline="ideographic">Soft Genre</tspan></text></g></g></g><g id="g-root-ro_v63ys81u2wydj-stroke" data-item-order="-30888" data-item-id="ro_v63ys81u2wydj" data-item-class="Shape Stroke Fill" data-item-index="none" data-renderer-id="0" transform="translate(242, 78)"><g id="ro_v63ys81u2wydj-stroke" fill="none" stroke-linecap="round" stroke-linejoin="round" stroke-miterlimit="4" stroke="#A3A3A3" stroke-width="2"><g><path d="M 34 10L 142 10C 142 10 166 10 166 34L 166 184C 166 184 166 208 142 208L 34 208C 34 208 10 208 10 184L 10 34C 10 34 10 10 34 10"></path></g></g></g><g id="g-root-ro_dcypco1u2lslp-stroke" data-item-order="-9072" data-item-id="ro_dcypco1u2lslp" data-item-class="Shape Stroke Fill" data-item-index="none" data-renderer-id="0" transform="translate(26, 3)"><g id="ro_dcypco1u2lslp-stroke" fill="none" stroke-linecap="round" stroke-linejoin="round" stroke-miterlimit="4" stroke="#FFE60A" stroke-width="2"><g><path d="M 22 10L 166 10C 166 10 178 10 178 22L 178 52C 178 52 178 64 166 64L 22 64C 22 64 10 64 10 52L 10 22C 10 22 10 10 22 10"></path></g></g></g><g id="g-root-ro_zofjko1u2n66j-stroke" data-item-order="-9072" data-item-id="ro_zofjko1u2n66j" data-item-class="Shape Stroke Fill" data-item-index="none" data-renderer-id="0" transform="translate(26, 189)"><g id="ro_zofjko1u2n66j-stroke" fill="none" stroke-linecap="round" stroke-linejoin="round" stroke-miterlimit="4" stroke="#44E095" stroke-width="2"><g><path d="M 22 10L 166 10C 166 10 178 10 178 22L 178 52C 178 52 178 64 166 64L 22 64C 22 64 10 64 10 52L 10 22C 10 22 10 10 22 10"></path></g></g></g><g id="g-root-ro_zofgew1u2zril-stroke" data-item-order="-7776" data-item-id="ro_zofgew1u2zril" data-item-class="Shape Stroke Fill" data-item-index="none" data-renderer-id="0" transform="translate(446, 3)"><g id="ro_zofgew1u2zril-stroke" fill="none" stroke-linecap="round" stroke-linejoin="round" stroke-miterlimit="4" stroke="#4F92FF" stroke-width="2"><g><path d="M 22 10L 142 10C 142 10 154 10 154 22L 154 52C 154 52 154 64 142 64L 22 64C 22 64 10 64 10 52L 10 22C 10 22 10 10 22 10"></path></g></g></g><g id="g-root-ro_1q9h1w81u35g5p-stroke" data-item-order="-6480" data-item-id="ro_1q9h1w81u35g5p" data-item-class="Shape Stroke Fill" data-item-index="none" data-renderer-id="0" transform="translate(446, 189)"><g id="ro_1q9h1w81u35g5p-stroke" fill="none" stroke-linecap="round" stroke-linejoin="round" stroke-miterlimit="4" stroke="#FD6A65" stroke-width="2"><g><path d="M 22 10L 118 10C 118 10 130 10 130 22L 130 52C 130 52 130 64 118 64L 22 64C 22 64 10 64 10 52L 10 22C 10 22 10 10 22 10"></path></g></g></g><g id="g-root-cu_mdliag1u2n4lr-stroke" data-item-order="0" data-item-id="cu_mdliag1u2n4lr" data-item-class="Curve Stroke ColorFillBlack ColorStrokeBlack" data-item-index="none" data-renderer-id="0" transform="translate(398, 30)"><g id="cu_mdliag1u2n4lr-stroke" fill="none" stroke-linecap="round" stroke-linejoin="round" stroke-miterlimit="4" stroke="#666666" stroke-width="2" stroke-dasharray="5.0, 7.0"><g><path d="M 10 124L 13 124L 13.1 124C 24.64275 123.999991 33.999998 114.642743 33.999998 103.099993L 34 103L 34 30.9C 33.999999 19.357249 43.357248 10.000001 54.899999 10.000002L 55 10L 58 10"></path></g></g></g><g id="g-root-tx_sadness_1cz9hp41u2zt3f-stroke" data-item-order="0" data-item-id="tx_sadness_1cz9hp41u2zt3f" data-item-class="Label Stroke" data-item-index="none" data-renderer-id="0" transform="translate(494, 18)"></g><g id="g-root-tx_upbeatte_1cuw9941u2kdn0-stroke" data-item-order="0" data-item-id="tx_upbeatte_1cuw9941u2kdn0" data-item-class="Label Stroke" data-item-index="none" data-renderer-id="0" transform="translate(2, 69)"></g><g id="g-root-cu_mdliag1u2n5ds-stroke" data-item-order="0" data-item-id="cu_mdliag1u2n5ds" data-item-class="Curve Stroke ColorFillBlack ColorStrokeBlack" data-item-index="none" data-renderer-id="0" transform="translate(152, 57)"><g id="cu_mdliag1u2n5ds-stroke" fill="none" stroke-linecap="round" stroke-linejoin="round" stroke-miterlimit="4" stroke="#666666" stroke-width="2" stroke-dasharray="5.0, 7.0"><g><path d="M 28 10L 28 22L 28 34L 19 34L 10 34"></path></g></g></g><g id="g-root-cu_dhyi1k1u2n66j-stroke" data-item-order="0" data-item-id="cu_dhyi1k1u2n66j" data-item-class="Curve Stroke ColorFillBlack ColorStrokeBlack" data-item-index="none" data-renderer-id="0" transform="translate(152, 57)"><g id="cu_dhyi1k1u2n66j-stroke" fill="none" stroke-linecap="round" stroke-linejoin="round" stroke-miterlimit="4" stroke="#666666" stroke-width="2" stroke-dasharray="5.0, 7.0"><g><path d="M 28 10L 28 40L 28 70L 19 70L 10 70"></path></g></g></g><g id="g-root-cu_924zx41u2n6yt-stroke" data-item-order="0" data-item-id="cu_924zx41u2n6yt" data-item-class="Curve Stroke ColorFillBlack ColorStrokeBlack" data-item-index="none" data-renderer-id="0" transform="translate(152, 57)"><g id="cu_924zx41u2n6yt-stroke" fill="none" stroke-linecap="round" stroke-linejoin="round" stroke-miterlimit="4" stroke="#666666" stroke-width="2" stroke-dasharray="5.0, 7.0"><g><path d="M 28 10L 28 22L 28 94C 28.000002 100.627415 22.627419 105.999998 16.000002 105.999998L 15.9 106L 10 106"></path></g></g></g><g id="g-root-cu_924zx41u2n6yv-stroke" data-item-order="0" data-item-id="cu_924zx41u2n6yv" data-item-class="Curve Stroke ColorFillBlack ColorStrokeBlack" data-item-index="none" data-renderer-id="0" transform="translate(470, 57)"><g id="cu_924zx41u2n6yv-stroke" fill="none" stroke-linecap="round" stroke-linejoin="round" stroke-miterlimit="4" stroke="#666666" stroke-width="2" stroke-dasharray="5.0, 7.0"><g><path d="M 10 10L 10 22L 10 34L 19 34L 28 34"></path></g></g></g><g id="g-root-cu_4mxyvs1u2n4le-stroke" data-item-order="0" data-item-id="cu_4mxyvs1u2n4le" data-item-class="Curve Stroke ColorFillBlack ColorStrokeBlack" data-item-index="none" data-renderer-id="0" transform="translate(470, 57)"><g id="cu_4mxyvs1u2n4le-stroke" fill="none" stroke-linecap="round" stroke-linejoin="round" stroke-miterlimit="4" stroke="#666666" stroke-width="2" stroke-dasharray="5.0, 7.0"><g><path d="M 10 10L 10 40L 10 70L 19 70L 28 70"></path></g></g></g><g id="g-root-cu_1usf0m01u2n570-stroke" data-item-order="0" data-item-id="cu_1usf0m01u2n570" data-item-class="Curve Stroke ColorFillBlack ColorStrokeBlack" data-item-index="none" data-renderer-id="0" transform="translate(470, 57)"><g id="cu_1usf0m01u2n570-stroke" fill="none" stroke-linecap="round" stroke-linejoin="round" stroke-miterlimit="4" stroke="#666666" stroke-width="2" stroke-dasharray="5.0, 7.0"><g><path d="M 10 10L 10 22L 10 94C 10.000004 100.627423 15.372587 106.000006 22.000005 106.000005L 22.1 106L 28 106"></path></g></g></g><g id="g-root-cu_v8m1g81u2n6ys-stroke" data-item-order="0" data-item-id="cu_v8m1g81u2n6ys" data-item-class="Curve Stroke ColorFillBlack ColorStrokeBlack" data-item-index="none" data-renderer-id="0" transform="translate(194, 30)"><g id="cu_v8m1g81u2n6ys-stroke" fill="none" stroke-linecap="round" stroke-linejoin="round" stroke-miterlimit="4" stroke="#666666" stroke-width="2" stroke-dasharray="5.0, 7.0"><g><path d="M 58 124L 55 124L 54.9 124C 43.357245 123.999994 33.999996 114.642746 33.999997 103.099995L 34 103L 34 30.9C 33.999998 19.357248 24.64275 10 13.1 10L 13 10L 10 10"></path></g></g></g><g id="g-root-tx_slowtemp_m8lplk1u2kdn3-stroke" data-item-order="0" data-item-id="tx_slowtemp_m8lplk1u2kdn3" data-item-class="Label Stroke" data-item-index="none" data-renderer-id="0" transform="translate(494, 69)"></g><g id="g-root-tx_positive_18fp87s1u2kb9h-stroke" data-item-order="0" data-item-id="tx_positive_18fp87s1u2kb9h" data-item-class="Label Stroke" data-item-index="none" data-renderer-id="0" transform="translate(14, 105)"></g><g id="g-root-hear_18gy02g1u2wzye-stroke" data-item-order="0" data-item-id="hear_18gy02g1u2wzye" data-item-class="Icon Stroke" data-item-index="none" data-renderer-id="0" transform="translate(296, 102)"><g id="hear_18gy02g1u2wzye-stroke" fill="none" stroke-linecap="round" stroke-linejoin="round" stroke-miterlimit="4" stroke="#A3A3A3" stroke-width="2"><g><path d="M 47 33L 47 13C 47 11.895431 46.104568 11 45 11L 13 11C 11.895431 11 11 11.895431 11 13L 11 45C 11 46.104568 11.895431 47 13 47L 33 47M 31 34C 31 35.656853 32.343147 37 34 37C 35.656853 37 37 35.656853 37 34C 37 32.343147 35.656853 31 34 31C 32.343147 31 31 32.343147 31 34ZM 17 36C 17 37.656853 18.343147 39 20 39C 21.656855 39 23 37.656853 23 36C 23 34.343147 21.656855 33 20 33C 18.343147 33 17 34.343147 17 36ZM 23 36L 23 24.51C 22.999504 23.616842 23.591278 22.831619 24.450001 22.586L 34.450001 19.73C 35.053333 19.55743 35.702682 19.67804 36.203804 20.055748C 36.704929 20.43346 36.999722 21.024473 37 21.652L 37 34M 47.285999 57L 39 48.363998C 37.508671 46.872696 37.138893 44.594429 38.082001 42.708L 38.082001 42.708C 38.786316 41.300049 40.124458 40.316452 41.678452 40.064453C 43.232441 39.812454 44.812843 40.322769 45.925999 41.435997L 47.278 42.787998L 48.630001 41.436001C 49.743156 40.322769 51.323555 39.812454 52.877544 40.064453C 54.431538 40.316452 55.76968 41.300049 56.473999 42.708L 56.473999 42.708C 57.417618 44.594013 57.048656 46.872227 55.558002 48.364002Z"></path></g></g></g><g id="g-root-tx_melancho_hteok81u2kb9k-stroke" data-item-order="0" data-item-id="tx_melancho_hteok81u2kb9k" data-item-class="Label Stroke" data-item-index="none" data-renderer-id="0" transform="translate(494, 105)"></g><g id="g-root-tx_cheerful_v48pug1u2kcue-stroke" data-item-order="0" data-item-id="tx_cheerful_v48pug1u2kcue" data-item-class="Label Stroke" data-item-index="none" data-renderer-id="0" transform="translate(2, 141)"></g><g id="g-root-tx_heavygen_1lseorc1u2kbus-stroke" data-item-order="0" data-item-id="tx_heavygen_1lseorc1u2kbus" data-item-class="Label Stroke" data-item-index="none" data-renderer-id="0" transform="translate(494, 327)"></g><g id="g-root-tx_curatedm_1lseifs1u2wydh-stroke" data-item-order="0" data-item-id="tx_curatedm_1lseifs1u2wydh" data-item-class="Label Stroke" data-item-index="none" data-renderer-id="0" transform="translate(266, 156)"></g><g id="g-root-cryi_18jfzko1u2ztvo-stroke" data-item-order="0" data-item-id="cryi_18jfzko1u2ztvo" data-item-class="Icon Stroke" data-item-index="none" data-renderer-id="0" transform="translate(458, 15)"><g id="cryi_18jfzko1u2ztvo-stroke" fill="none" stroke-linecap="round" stroke-linejoin="round" stroke-miterlimit="4" stroke="#4F92FF" stroke-width="2"><g><path d="M 10.625 25C 10.625 32.939095 17.060907 39.375 25 39.375C 32.939095 39.375 39.375 32.939095 39.375 25C 39.375 17.060907 32.939095 10.625 25 10.625C 17.060907 10.625 10.625 17.060907 10.625 25ZM 20.625 19.6875C 20.797588 19.6875 20.9375 19.827412 20.9375 20C 20.9375 20.172588 20.797588 20.3125 20.625 20.3125C 20.452412 20.3125 20.3125 20.172588 20.3125 20C 20.3125 19.827412 20.452412 19.6875 20.625 19.6875M 29.375 19.6875C 29.202412 19.6875 29.0625 19.827412 29.0625 20C 29.0625 20.172588 29.202412 20.3125 29.375 20.3125C 29.547588 20.3125 29.6875 20.172588 29.6875 20C 29.6875 19.827412 29.547588 19.6875 29.375 19.6875M 33.75 25.625C 33.75 26.660534 32.910534 27.5 31.875 27.5C 30.839466 27.5 30 26.660534 30 25.625C 30 24.59 31.875 21.875 31.875 21.875C 31.875 21.875 33.75 24.59 33.75 25.625ZM 19.375 33.75C 19.375 30.643398 21.893398 28.125 25 28.125C 28.106602 28.125 30.625 30.643398 30.625 33.75"></path></g></g></g><g id="g-root-1_m8lplk1u2lrt0-stroke" data-item-order="0" data-item-id="1_m8lplk1u2lrt0" data-item-class="Icon Stroke" data-item-index="none" data-renderer-id="0" transform="translate(152, 15)"><g id="1_m8lplk1u2lrt0-stroke" fill="none" stroke-linecap="round" stroke-linejoin="round" stroke-miterlimit="4" stroke="#FFE60A" stroke-width="2"><g><path d="M 16.71125 26.875C 18.334927 29.947433 21.524921 31.869677 25.000002 31.869677C 28.475079 31.869677 31.665075 29.947433 33.28875 26.875002M 10.625 25C 10.625 32.939095 17.060907 39.375 25 39.375C 32.939095 39.375 39.375 32.939095 39.375 25C 39.375 17.060907 32.939095 10.625 25 10.625C 17.060907 10.625 10.625 17.060907 10.625 25ZM 16.875 20C 17.734415 18.789108 19.140638 18.085997 20.625 18.125M 33.125 20C 32.265583 18.789108 30.85936 18.085997 29.375 18.125"></path></g></g></g><g id="g-root-tx_relaxati_1luwl3s1u2n6yp-stroke" data-item-order="0" data-item-id="tx_relaxati_1luwl3s1u2n6yp" data-item-class="Label Stroke" data-item-index="none" data-renderer-id="0" transform="translate(38, 204)"></g><g id="g-root-1_18k2jtk1u2n5du-stroke" data-item-order="0" data-item-id="1_18k2jtk1u2n5du" data-item-class="Icon Stroke" data-item-index="none" data-renderer-id="0" transform="translate(152, 201)"><g id="1_18k2jtk1u2n5du-stroke" fill="none" stroke-linecap="round" stroke-linejoin="round" stroke-miterlimit="4" stroke="#44E095" stroke-width="2"><g><path d="M 21.25 14.375C 21.25 16.446068 22.928932 18.125 25 18.125C 27.071068 18.125 28.75 16.446068 28.75 14.375C 28.75 12.303932 27.071068 10.625 25 10.625C 22.928932 10.625 21.25 12.303932 21.25 14.375M 30.625 39.375C 30.262499 39.375 31.262501 39.612499 16.387501 35.5625C 15.386484 35.293262 14.793262 34.263515 15.0625 33.262501C 15.331739 32.261482 16.361485 31.668262 17.362501 31.937502L 31.112499 35.6875C 32.024456 35.929016 32.614956 36.810501 32.49131 37.745758C 32.367668 38.681019 31.56839 39.378769 30.625 39.375ZM 34.324997 35.1875C 35.000271 34.623337 35.192383 33.665497 34.786903 32.884567C 34.381416 32.103638 33.487434 31.70973 32.637501 31.937502L 25 34.024998M 17.825001 38.537498C 18.165428 39.062305 18.749458 39.377869 19.375 39.375C 19.7125 39.375 19.375 39.450001 25 37.912498M 19.200001 24.25C 18.375 26.012501 20.449999 26.325001 21.7875 26.262501C 22.818802 26.21291 23.696125 27.006414 23.75 28.0375C 23.75 28.112499 23.887499 30.025002 21.4625 30.025002C 19.589573 30.100821 17.748035 29.52672 16.25 28.4C 15.463033 27.696188 15.009211 26.693241 15 25.637501C 14.97431 24.252113 15.604559 22.936005 16.699999 22.0875C 18.029661 21.142658 19.618841 20.631851 21.25 20.625L 28.75 20.625C 30.381157 20.631851 31.970337 21.142658 33.299999 22.0875C 34.395439 22.936005 35.025688 24.252113 35 25.637499C 35.006844 26.683666 34.576347 27.685129 33.8125 28.4C 32.294334 29.531723 30.428558 30.097647 28.5375 30C 26.112501 30 26.25 28.112499 26.25 28.0375C 26.303885 26.999514 27.186798 26.200418 28.225 26.25C 29.5625 26.3125 31.625 26 30.799999 24.237501"></path></g></g></g><g id="g-root-cu_qtf0ew1u2n4lh-stroke" data-item-order="0" data-item-id="cu_qtf0ew1u2n4lh" data-item-class="Curve Stroke ColorFillBlack ColorStrokeBlack" data-item-index="none" data-renderer-id="0" transform="translate(194, 210)"><g id="cu_qtf0ew1u2n4lh-stroke" fill="none" stroke-linecap="round" stroke-linejoin="round" stroke-miterlimit="4" stroke="#666666" stroke-width="2" stroke-dasharray="5.0, 7.0"><g><path d="M 58 10L 55 10L 54.9 10C 51.688705 10.016366 48.132487 10.28476 44.300001 10.799998C 42.131706 11.054283 38.50188 11.829586 33.999999 13C 29.498118 14.170414 25.868292 14.945717 23.699999 15.2C 19.867515 15.715237 16.311297 15.983631 13.1 16L 13 16L 10 16"></path></g></g></g><g id="g-root-cu_qtf0ew1u2n4le-stroke" data-item-order="0" data-item-id="cu_qtf0ew1u2n4le" data-item-class="Curve Stroke ColorFillBlack ColorStrokeBlack" data-item-index="none" data-renderer-id="0" transform="translate(398, 210)"><g id="cu_qtf0ew1u2n4le-stroke" fill="none" stroke-linecap="round" stroke-linejoin="round" stroke-miterlimit="4" stroke="#666666" stroke-width="2" stroke-dasharray="5.0, 7.0"><g><path d="M 10 10L 13 10L 13.1 10C 16.311297 10.016369 19.867515 10.284763 23.700001 10.800001C 25.868292 11.054283 29.498118 11.829585 33.999999 13C 38.50188 14.170414 42.131706 14.945717 44.299999 15.2C 48.132487 15.71524 51.688705 15.983634 54.900002 16.000002L 55 16L 58 16"></path></g></g></g><g id="g-root-angr_400601u35fk4-stroke" data-item-order="0" data-item-id="angr_400601u35fk4" data-item-class="Icon Stroke" data-item-index="none" data-renderer-id="0" transform="translate(458, 201)"><g id="angr_400601u35fk4-stroke" fill="none" stroke-linecap="round" stroke-linejoin="round" stroke-miterlimit="4" stroke="#FD6A65" stroke-width="2"><g><path d="M 31.293751 18.268749C 27.685575 21.383112 22.348841 21.41279 18.706251 18.338751M 28.75 16.096251C 26.600277 17.9524 23.42001 17.969891 21.25 16.137501M 10.625 25C 10.625 32.939095 17.060907 39.375 25 39.375C 32.939095 39.375 39.375 32.939095 39.375 25C 39.375 17.060907 32.939095 10.625 25 10.625C 17.060907 10.625 10.625 17.060907 10.625 25ZM 18.125 22.8125C 17.952412 22.8125 17.8125 22.672588 17.8125 22.5C 17.8125 22.327412 17.952412 22.1875 18.125 22.1875C 18.297588 22.1875 18.4375 22.327412 18.4375 22.5C 18.4375 22.672588 18.297588 22.8125 18.125 22.8125M 31.875 22.8125C 31.702412 22.8125 31.5625 22.672588 31.5625 22.5C 31.5625 22.327412 31.702412 22.1875 31.875 22.1875C 32.047588 22.1875 32.1875 22.327412 32.1875 22.5C 32.1875 22.672588 32.047588 22.8125 31.875 22.8125M 25 28.125C 23.964466 28.125 23.125 28.964466 23.125 30L 23.125 32.5C 23.125 33.535534 23.964466 34.375 25 34.375C 26.035534 34.375 26.875 33.535534 26.875 32.5L 26.875 30C 26.875 28.964466 26.035534 28.125 25 28.125Z"></path></g></g></g><g id="g-root-tx_anger_dfgijc1u35dz7-stroke" data-item-order="0" data-item-id="tx_anger_dfgijc1u35dz7" data-item-class="Label Stroke" data-item-index="none" data-renderer-id="0" transform="translate(494, 204)"></g><g id="g-root-tx_slowtemp_1lseorc1u2kbut-stroke" data-item-order="0" data-item-id="tx_slowtemp_1lseorc1u2kbut" data-item-class="Label Stroke" data-item-index="none" data-renderer-id="0" transform="translate(26, 255)"></g><g id="g-root-cu_1lws0d41u2n6rp-stroke" data-item-order="0" data-item-id="cu_1lws0d41u2n6rp" data-item-class="Curve Stroke ColorFillBlack ColorStrokeBlack" data-item-index="none" data-renderer-id="0" transform="translate(152, 243)"><g id="cu_1lws0d41u2n6rp-stroke" fill="none" stroke-linecap="round" stroke-linejoin="round" stroke-miterlimit="4" stroke="#666666" stroke-width="2" stroke-dasharray="5.0, 7.0"><g><path d="M 28 10L 28 22L 28 34L 19 34L 10 34"></path></g></g></g><g id="g-root-cu_1hhkzbs1u2n4e8-stroke" data-item-order="0" data-item-id="cu_1hhkzbs1u2n4e8" data-item-class="Curve Stroke ColorFillBlack ColorStrokeBlack" data-item-index="none" data-renderer-id="0" transform="translate(152, 243)"><g id="cu_1hhkzbs1u2n4e8-stroke" fill="none" stroke-linecap="round" stroke-linejoin="round" stroke-miterlimit="4" stroke="#666666" stroke-width="2" stroke-dasharray="5.0, 7.0"><g><path d="M 28 10L 28 40L 28 70L 19 70L 10 70"></path></g></g></g><g id="g-root-cu_1hhkzbs1u2n4ea-stroke" data-item-order="0" data-item-id="cu_1hhkzbs1u2n4ea" data-item-class="Curve Stroke ColorFillBlack ColorStrokeBlack" data-item-index="none" data-renderer-id="0" transform="translate(152, 243)"><g id="cu_1hhkzbs1u2n4ea-stroke" fill="none" stroke-linecap="round" stroke-linejoin="round" stroke-miterlimit="4" stroke="#666666" stroke-width="2" stroke-dasharray="5.0, 7.0"><g><path d="M 28 10L 28 22L 28 94C 28.000002 100.627415 22.627419 105.999998 16.000002 105.999998L 15.9 106L 10 106"></path></g></g></g><g id="g-root-cu_1qclihk1u2n5za-stroke" data-item-order="0" data-item-id="cu_1qclihk1u2n5za" data-item-class="Curve Stroke ColorFillBlack ColorStrokeBlack" data-item-index="none" data-renderer-id="0" transform="translate(470, 243)"><g id="cu_1qclihk1u2n5za-stroke" fill="none" stroke-linecap="round" stroke-linejoin="round" stroke-miterlimit="4" stroke="#666666" stroke-width="2" stroke-dasharray="5.0, 7.0"><g><path d="M 10 10L 10 22L 10 34L 19 34L 28 34"></path></g></g></g><g id="g-root-cu_1qclihk1u2n5zd-stroke" data-item-order="0" data-item-id="cu_1qclihk1u2n5zd" data-item-class="Curve Stroke ColorFillBlack ColorStrokeBlack" data-item-index="none" data-renderer-id="0" transform="translate(470, 243)"><g id="cu_1qclihk1u2n5zd-stroke" fill="none" stroke-linecap="round" stroke-linejoin="round" stroke-miterlimit="4" stroke="#666666" stroke-width="2" stroke-dasharray="5.0, 7.0"><g><path d="M 10 10L 10 40L 10 70L 19 70L 28 70"></path></g></g></g><g id="g-root-cu_1lws0d41u2n6rn-stroke" data-item-order="0" data-item-id="cu_1lws0d41u2n6rn" data-item-class="Curve Stroke ColorFillBlack ColorStrokeBlack" data-item-index="none" data-renderer-id="0" transform="translate(470, 243)"><g id="cu_1lws0d41u2n6rn-stroke" fill="none" stroke-linecap="round" stroke-linejoin="round" stroke-miterlimit="4" stroke="#666666" stroke-width="2" stroke-dasharray="5.0, 7.0"><g><path d="M 10 10L 10 22L 10 94C 10.000004 100.627423 15.372587 106.000006 22.000005 106.000005L 22.1 106L 28 106"></path></g></g></g><g id="g-root-tx_fasttemp_24o2g1u2kdmq-stroke" data-item-order="0" data-item-id="tx_fasttemp_24o2g1u2kdmq" data-item-class="Label Stroke" data-item-index="none" data-renderer-id="0" transform="translate(494, 255)"></g><g id="g-root-tx_calmlyri_1cwroig1u2kcni-stroke" data-item-order="0" data-item-id="tx_calmlyri_1cwroig1u2kcni" data-item-class="Label Stroke" data-item-index="none" data-renderer-id="0" transform="translate(38, 291)"></g><g id="g-root-tx_aggressi_1q7lpso1u2ke8b-stroke" data-item-order="0" data-item-id="tx_aggressi_1q7lpso1u2ke8b" data-item-class="Label Stroke" data-item-index="none" data-renderer-id="0" transform="translate(494, 291)"></g><g id="g-root-tx_ambientg_18gy6e01u2kdfr-stroke" data-item-order="0" data-item-id="tx_ambientg_18gy6e01u2kdfr" data-item-class="Label Stroke" data-item-index="none" data-renderer-id="0" transform="translate(2, 327)"></g><g id="g-root-tx_happines_qof7q01u2lr0r-stroke" data-item-order="0" data-item-id="tx_happines_qof7q01u2lr0r" data-item-class="Label Stroke" data-item-index="none" data-renderer-id="0" transform="translate(38, 18)"></g><g id="g-root-tx_softgenr_ddl6fs1u2kc1t-stroke" data-item-order="0" data-item-id="tx_softgenr_ddl6fs1u2kc1t" data-item-class="Label Stroke" data-item-index="none" data-renderer-id="0" transform="translate(494, 141)"></g></g></g></svg>