<?xml version="1.0" encoding="utf-8" standalone="yes"?>
<!DOCTYPE svg PUBLIC "-//W3C//DTD SVG 1.1//EN" "http://www.w3.org/Graphics/SVG/1.1/DTD/svg11.dtd">
<svg width="660" height="480" viewBox="0 0 660 480" style="fill:none;stroke:none;fill-rule:evenodd;clip-rule:evenodd;stroke-linecap:round;stroke-linejoin:round;stroke-miterlimit:1.5;" version="1.1" xmlns="http://www.w3.org/2000/svg" xmlns:xlink="http://www.w3.org/1999/xlink"><style id="fontImports">@import url("https://fonts.googleapis.com/css2?family=Roboto:wght@400;700&amp;display=block");</style><g id="items" style="isolation: isolate"><g id="blend" style="mix-blend-mode:screen"><g id="g-root-5.cr-small-5_cr_8z3ko1r12vpd-fill" data-item-order="-113799" data-item-id="5.cr-small-5_cr_8z3ko1r12vpd" data-item-class="Shape Stroke Fill Part Indexed" data-item-index="5" data-renderer-id="0" transform="translate(137.1328125, 162.025146484375)"><g id="5.cr-small-5_cr_8z3ko1r12vpd-fill" stroke="none" fill="url(#gradient-e05e5a-419626624)"><g><path d="M 10 46C 10 65.882251 26.117749 82 46 82C 65.882251 82 82 65.882251 82 46C 82 26.117749 65.882251 10 46 10C 26.117749 10 10 26.117749 10 46"></path></g></g></g><g id="g-root-5.line_sy_1qeg5aw1r12way-fill" data-item-order="-113796" data-item-id="5.line_sy_1qeg5aw1r12way" data-item-class="Part Indexed Stroke Arrow ColorStrokeGray" data-item-index="5" data-renderer-id="0" transform="translate(164.130126953125, 247.31689453125)"></g><g id="g-root-4.cr-small-4_cr_1uu9nfc1r12vin-fill" data-item-order="-113795" data-item-id="4.cr-small-4_cr_1uu9nfc1r12vin" data-item-class="Shape Stroke Fill Part Indexed" data-item-index="4" data-renderer-id="0" transform="translate(187.375, 322.9501953125)"><g id="4.cr-small-4_cr_1uu9nfc1r12vin-fill" stroke="none" fill="url(#gradient-dc8433-135949021)"><g><path d="M 10 46C 10 65.882251 26.117749 82 46 82C 65.882251 82 82 65.882251 82 46C 82 26.117749 65.882251 10 46 10C 26.117749 10 10 26.117749 10 46"></path></g></g></g><g id="g-root-4.line_sy_8z3ko1r12vpc-fill" data-item-order="-113792" data-item-id="4.line_sy_8z3ko1r12vpc" data-item-class="Part Indexed Stroke Arrow ColorStrokeGray" data-item-index="4" data-renderer-id="0" transform="translate(268.4609375, 380.52667236328125)"></g><g id="g-root-3.cr-small-3_cr_4oslp41r12ux1-fill" data-item-order="-113791" data-item-id="3.cr-small-3_cr_4oslp41r12ux1" data-item-class="Shape Stroke Fill Part Indexed" data-item-index="3" data-renderer-id="0" transform="translate(356.5625, 322.9501953125)"><g id="3.cr-small-3_cr_4oslp41r12ux1-fill" stroke="none" fill="url(#gradient-e2cc09-3952618)"><g><path d="M 10 46C 10 65.882251 26.117749 82 46 82C 65.882251 82 82 65.882251 82 46C 82 26.117749 65.882251 10 46 10C 26.117749 10 10 26.117749 10 46"></path></g></g></g><g id="g-root-3.line_sy_4oslp41r12ux2-fill" data-item-order="-113788" data-item-id="3.line_sy_4oslp41r12ux2" data-item-class="Part Indexed Stroke Arrow ColorStrokeGray" data-item-index="3" data-renderer-id="0" transform="translate(427.2607421875, 245.5068359375)"></g><g id="g-root-2.cr-small-2_cr_94m3tk1r12u4r-fill" data-item-order="-113787" data-item-id="2.cr-small-2_cr_94m3tk1r12u4r" data-item-class="Shape Stroke Fill Part Indexed" data-item-index="2" data-renderer-id="0" transform="translate(406.9345703125, 162.025146484375)"><g id="2.cr-small-2_cr_94m3tk1r12u4r-fill" stroke="none" fill="url(#gradient-92c031-119406507)"><g><path d="M 10 46C 10 65.882251 26.117749 82 46 82C 65.882251 82 82 65.882251 82 46C 82 26.117749 65.882251 10 46 10C 26.117749 10 10 26.117749 10 46"></path></g></g></g><g id="g-root-2.line_sy_4oslp41r12ux0-fill" data-item-order="-113784" data-item-id="2.line_sy_4oslp41r12ux0" data-item-class="Part Indexed Stroke Arrow ColorStrokeGray" data-item-index="2" data-renderer-id="0" transform="translate(355.90045166015625, 106.64700317382812)"></g><g id="g-root-1.cr-small-1_cr_hzmmzc1r12wht-fill" data-item-order="-113783" data-item-id="1.cr-small-1_cr_hzmmzc1r12wht" data-item-class="Shape Stroke Fill Part Indexed Indexed_1" data-item-index="1" data-renderer-id="0" transform="translate(272, 62)"><defs><linearGradient id="gradient-e05e5a-419626624" x2="0" y2="1"><stop offset="0" stop-color="#FD6A65"></stop><stop offset="1" stop-color="#c2514e"></stop></linearGradient><linearGradient id="gradient-dc8433-135949021" x2="0" y2="1"><stop offset="0" stop-color="#F99539"></stop><stop offset="1" stop-color="#be722c"></stop></linearGradient><linearGradient id="gradient-e2cc09-3952618" x2="0" y2="1"><stop offset="0" stop-color="#FFE60A"></stop><stop offset="1" stop-color="#c4b108"></stop></linearGradient><linearGradient id="gradient-92c031-119406507" x2="0" y2="1"><stop offset="0" stop-color="#A8DD38"></stop><stop offset="1" stop-color="#7ba229"></stop></linearGradient><linearGradient id="gradient-3bc382-226276808" x2="0" y2="1"><stop offset="0" stop-color="#44E095"></stop><stop offset="1" stop-color="#32a56e"></stop></linearGradient></defs><g id="1.cr-small-1_cr_hzmmzc1r12wht-fill" stroke="none" fill="url(#gradient-3bc382-226276808)"><g><path d="M 10 46C 10 65.882251 26.117749 82 46 82C 65.882251 82 82 65.882251 82 46C 82 26.117749 65.882251 10 46 10C 26.117749 10 10 26.117749 10 46"></path></g></g></g><g id="g-root-1.line_sy_94m3tk1r12u4q-fill" data-item-order="-113780" data-item-id="1.line_sy_94m3tk1r12u4q" data-item-class="Part Indexed Indexed_1 Stroke Arrow ColorStrokeGray" data-item-index="1" data-renderer-id="0" transform="translate(193.900390625, 106.99688720703125)"></g><g id="g-root-tx_assessbo_m7byzc1r149an-fill" data-item-order="0" data-item-id="tx_assessbo_m7byzc1r149an" data-item-class="Label Stroke Indexed Indexed_1" data-item-index="1" data-renderer-id="0" transform="translate(242, 2)"><g id="tx_assessbo_m7byzc1r149an-fill" stroke="none" fill="#000000"><g><text style="font: 20px Roboto, sans-serif; white-space: pre;"><tspan x="16.29" y="34" dominant-baseline="ideographic">Assess Body </tspan><tspan x="40.02" y="58" dominant-baseline="ideographic">Metrics</tspan></text></g></g></g><g id="g-root-scal_92qok81r15o8x-fill" data-item-order="0" data-item-id="scal_92qok81r15o8x" data-item-class="Icon Stroke Indexed Indexed_1 InsideFill InsideColorFill ColorStrokeGray" data-item-index="1" data-renderer-id="0" transform="translate(284, 74)"></g><g id="g-root-2_1lvi9qw1r15o99-fill" data-item-order="0" data-item-id="2_1lvi9qw1r15o99" data-item-class="Icon Stroke Indexed InsideFill InsideColorFill ColorStrokeGray" data-item-index="5" data-renderer-id="0" transform="translate(149, 174)"></g><g id="g-root-gym_mdkpug1r15pts-fill" data-item-order="0" data-item-id="gym_mdkpug1r15pts" data-item-class="Icon Stroke Indexed InsideFill InsideColorFill ColorStrokeGray" data-item-index="2" data-renderer-id="0" transform="translate(419, 174)"></g><g id="g-root-tx_adjustpl_1qeg5aw1r12waz-fill" data-item-order="0" data-item-id="tx_adjustpl_1qeg5aw1r12waz" data-item-class="Label Stroke Indexed" data-item-index="5" data-renderer-id="0" transform="translate(2, 188)"><g id="tx_adjustpl_1qeg5aw1r12waz-fill" stroke="none" fill="#000000"><g><text style="font: 20px Roboto, sans-serif; white-space: pre;"><tspan x="16.38" y="34" dominant-baseline="ideographic">Adjust Plans</tspan></text></g></g></g><g id="g-root-tx_createcu_v2yz881r148hy-fill" data-item-order="0" data-item-id="tx_createcu_v2yz881r148hy" data-item-class="Label Stroke Indexed" data-item-index="2" data-renderer-id="0" transform="translate(494, 176)"><g id="tx_createcu_v2yz881r148hy-fill" stroke="none" fill="#000000"><g><text style="font: 20px Roboto, sans-serif; white-space: pre;"><tspan x="12" y="34" dominant-baseline="ideographic">Create Custom </tspan><tspan x="12" y="58" dominant-baseline="ideographic">Plans</tspan></text></g></g></g><g id="g-root-2_18k1rdk1r15pu6-fill" data-item-order="0" data-item-id="2_18k1rdk1r15pu6" data-item-class="Icon Stroke Indexed InsideFill InsideColorFill ColorStrokeGray" data-item-index="4" data-renderer-id="0" transform="translate(200, 335)"></g><g id="g-root-heal_v97q3c1r15o9b-fill" data-item-order="0" data-item-id="heal_v97q3c1r15o9b" data-item-class="Icon Stroke Indexed InsideFill InsideColorFill ColorStrokeGray" data-item-index="3" data-renderer-id="0" transform="translate(368, 335)"></g><g id="g-root-tx_monitorp_1lz949k1r12txg-fill" data-item-order="0" data-item-id="tx_monitorp_1lz949k1r12txg" data-item-class="Label Stroke Indexed" data-item-index="4" data-renderer-id="0" transform="translate(140, 410)"><g id="tx_monitorp_1lz949k1r12txg-fill" stroke="none" fill="#000000"><g><text style="font: 20px Roboto, sans-serif; white-space: pre;"><tspan x="22.72" y="34" dominant-baseline="ideographic">Monitor </tspan><tspan x="12.38" y="58" dominant-baseline="ideographic">Progress</tspan></text></g></g></g><g id="g-root-tx_implemen_18nslw81r12vid-fill" data-item-order="0" data-item-id="tx_implemen_18nslw81r12vid" data-item-class="Label Stroke Indexed" data-item-index="3" data-renderer-id="0" transform="translate(392, 410)"><g id="tx_implemen_18nslw81r12vid-fill" stroke="none" fill="#000000"><g><text style="font: 20px Roboto, sans-serif; white-space: pre;"><tspan x="12" y="34" dominant-baseline="ideographic">Implement </tspan><tspan x="12" y="58" dominant-baseline="ideographic">Plans</tspan></text></g></g></g><g id="g-root-5.cr-small-5_cr_8z3ko1r12vpd-stroke" data-item-order="-113799" data-item-id="5.cr-small-5_cr_8z3ko1r12vpd" data-item-class="Shape Stroke Fill Part Indexed" data-item-index="5" data-renderer-id="0" transform="translate(137.1328125, 162.025146484375)"><g id="5.cr-small-5_cr_8z3ko1r12vpd-stroke" fill="none" stroke-linecap="round" stroke-linejoin="round" stroke-miterlimit="4" stroke="#ffffff" stroke-width="2"><g><path d="M 10 46C 10 65.882251 26.117749 82 46 82C 65.882251 82 82 65.882251 82 46C 82 26.117749 65.882251 10 46 10C 26.117749 10 10 26.117749 10 46"></path></g></g></g><g id="g-root-5.line_sy_1qeg5aw1r12way-stroke" data-item-order="-113796" data-item-id="5.line_sy_1qeg5aw1r12way" data-item-class="Part Indexed Stroke Arrow ColorStrokeGray" data-item-index="5" data-renderer-id="0" transform="translate(164.130126953125, 247.31689453125)"><g id="5.line_sy_1qeg5aw1r12way-stroke" fill="none" stroke-linecap="round" stroke-linejoin="round" stroke-miterlimit="4" stroke="#FFFFFF" stroke-width="2"><g><path d="M 10.079895 11.933105C 11.359895 39.913105 20.639895 65.793105 35.669895 87.383105"></path><path d="M 17.079895 17.533105L 10.079895 11.533105L 4.079895 18.433105" stroke-dasharray="none"></path></g></g></g><g id="g-root-4.cr-small-4_cr_1uu9nfc1r12vin-stroke" data-item-order="-113795" data-item-id="4.cr-small-4_cr_1uu9nfc1r12vin" data-item-class="Shape Stroke Fill Part Indexed" data-item-index="4" data-renderer-id="0" transform="translate(187.375, 322.9501953125)"><g id="4.cr-small-4_cr_1uu9nfc1r12vin-stroke" fill="none" stroke-linecap="round" stroke-linejoin="round" stroke-miterlimit="4" stroke="#ffffff" stroke-width="2"><g><path d="M 10 46C 10 65.882251 26.117749 82 46 82C 65.882251 82 82 65.882251 82 46C 82 26.117749 65.882251 10 46 10C 26.117749 10 10 26.117749 10 46"></path></g></g></g><g id="g-root-4.line_sy_8z3ko1r12vpc-stroke" data-item-order="-113792" data-item-id="4.line_sy_8z3ko1r12vpc" data-item-class="Part Indexed Stroke Arrow ColorStrokeGray" data-item-index="4" data-renderer-id="0" transform="translate(268.4609375, 380.52667236328125)"><g id="4.line_sy_8z3ko1r12vpc-stroke" fill="none" stroke-linecap="round" stroke-linejoin="round" stroke-miterlimit="4" stroke="#FFFFFF" stroke-width="2"><g><path d="M 11.999023 11.003357C 23.979023 14.233357 36.589023 15.973357 49.589023 15.973357C 63.319023 15.973357 77.679023 13.883357 90.709023 10.003357"></path><path d="M 19.299023 6.003357L 11.499023 10.803357L 16.299023 18.603357" stroke-dasharray="none"></path></g></g></g><g id="g-root-3.cr-small-3_cr_4oslp41r12ux1-stroke" data-item-order="-113791" data-item-id="3.cr-small-3_cr_4oslp41r12ux1" data-item-class="Shape Stroke Fill Part Indexed" data-item-index="3" data-renderer-id="0" transform="translate(356.5625, 322.9501953125)"><g id="3.cr-small-3_cr_4oslp41r12ux1-stroke" fill="none" stroke-linecap="round" stroke-linejoin="round" stroke-miterlimit="4" stroke="#ffffff" stroke-width="2"><g><path d="M 10 46C 10 65.882251 26.117749 82 46 82C 65.882251 82 82 65.882251 82 46C 82 26.117749 65.882251 10 46 10C 26.117749 10 10 26.117749 10 46"></path></g></g></g><g id="g-root-3.line_sy_4oslp41r12ux2-stroke" data-item-order="-113788" data-item-id="3.line_sy_4oslp41r12ux2" data-item-class="Part Indexed Stroke Arrow ColorStrokeGray" data-item-index="3" data-renderer-id="0" transform="translate(427.2607421875, 245.5068359375)"><g id="3.line_sy_4oslp41r12ux2-stroke" fill="none" stroke-linecap="round" stroke-linejoin="round" stroke-miterlimit="4" stroke="#FFFFFF" stroke-width="2"><g><path d="M 11.099243 86.133174C 25.549243 64.203174 34.169243 38.083174 34.739243 10.003174"></path><path d="M 8.699243 77.503174L 10.799243 86.503174L 19.699243 84.403174" stroke-dasharray="none"></path></g></g></g><g id="g-root-2.cr-small-2_cr_94m3tk1r12u4r-stroke" data-item-order="-113787" data-item-id="2.cr-small-2_cr_94m3tk1r12u4r" data-item-class="Shape Stroke Fill Part Indexed" data-item-index="2" data-renderer-id="0" transform="translate(406.9345703125, 162.025146484375)"><g id="2.cr-small-2_cr_94m3tk1r12u4r-stroke" fill="none" stroke-linecap="round" stroke-linejoin="round" stroke-miterlimit="4" stroke="#ffffff" stroke-width="2"><g><path d="M 10 46C 10 65.882251 26.117749 82 46 82C 65.882251 82 82 65.882251 82 46C 82 26.117749 65.882251 10 46 10C 26.117749 10 10 26.117749 10 46"></path></g></g></g><g id="g-root-2.line_sy_4oslp41r12ux0-stroke" data-item-order="-113784" data-item-id="2.line_sy_4oslp41r12ux0" data-item-class="Part Indexed Stroke Arrow ColorStrokeGray" data-item-index="2" data-renderer-id="0" transform="translate(355.90045166015625, 106.64700317382812)"><g id="2.line_sy_4oslp41r12ux0-stroke" fill="none" stroke-linecap="round" stroke-linejoin="round" stroke-miterlimit="4" stroke="#FFFFFF" stroke-width="2"><g><path d="M 74.299573 55.543021C 57.679573 34.913021 35.479573 18.973021 9.999573 10.003021"></path><path d="M 65.399573 55.203021L 74.599573 56.003021L 75.299573 46.803021" stroke-dasharray="none"></path></g></g></g><g id="g-root-1.cr-small-1_cr_hzmmzc1r12wht-stroke" data-item-order="-113783" data-item-id="1.cr-small-1_cr_hzmmzc1r12wht" data-item-class="Shape Stroke Fill Part Indexed Indexed_1" data-item-index="1" data-renderer-id="0" transform="translate(272, 62)"><g id="1.cr-small-1_cr_hzmmzc1r12wht-stroke" fill="none" stroke-linecap="round" stroke-linejoin="round" stroke-miterlimit="4" stroke="#ffffff" stroke-width="2"><g><path d="M 10 46C 10 65.882251 26.117749 82 46 82C 65.882251 82 82 65.882251 82 46C 82 26.117749 65.882251 10 46 10C 26.117749 10 10 26.117749 10 46"></path></g></g></g><g id="g-root-1.line_sy_94m3tk1r12u4q-stroke" data-item-order="-113780" data-item-id="1.line_sy_94m3tk1r12u4q" data-item-class="Part Indexed Indexed_1 Stroke Arrow ColorStrokeGray" data-item-index="1" data-renderer-id="0" transform="translate(193.900390625, 106.99688720703125)"><g id="1.line_sy_94m3tk1r12u4q-stroke" fill="none" stroke-linecap="round" stroke-linejoin="round" stroke-miterlimit="4" stroke="#FFFFFF" stroke-width="2"><g><path d="M 73.399603 10.703125C 48.109603 20.233125 26.209603 36.663125 9.999603 57.713125"></path><path d="M 70.399603 19.003125L 73.899603 10.603125L 65.399603 7.003125" stroke-dasharray="none"></path></g></g></g><g id="g-root-tx_assessbo_m7byzc1r149an-stroke" data-item-order="0" data-item-id="tx_assessbo_m7byzc1r149an" data-item-class="Label Stroke Indexed Indexed_1" data-item-index="1" data-renderer-id="0" transform="translate(242, 2)"></g><g id="g-root-scal_92qok81r15o8x-stroke" data-item-order="0" data-item-id="scal_92qok81r15o8x" data-item-class="Icon Stroke Indexed Indexed_1 InsideFill InsideColorFill ColorStrokeGray" data-item-index="1" data-renderer-id="0" transform="translate(284, 74)"><g id="scal_92qok81r15o8x-stroke" fill="none" stroke-linecap="round" stroke-linejoin="round" stroke-miterlimit="4" stroke="#FFFFFF" stroke-width="2"><g><path d="M 15.812 55.209999C 15.919406 56.227261 16.777086 56.999516 17.799999 57L 50.200001 57C 51.222912 56.999516 52.080593 56.227261 52.188 55.209999L 55.888 20.063999C 55.95887 19.386477 55.680008 18.719471 55.147999 18.293999C 49.14587 13.50548 41.677925 10.929766 34 11C 26.322073 10.929766 18.854128 13.50548 12.851999 18.293999C 12.31999 18.719471 12.04113 19.386477 12.112 20.063999ZM 50.548 19.896C 50.830513 20.081081 51.000515 20.396259 51 20.734001L 51 26C 51 26.552284 50.552284 27 50 27L 18 27C 17.447716 27 17 26.552284 17 26L 17 20.734001C 16.999487 20.396259 17.169487 20.081081 17.452 19.896C 24.646112 15.236403 33.470005 13.82214 41.760002 16C 44.87994 16.817188 47.847462 18.132786 50.548 19.896ZM 20.548 46.650002C 20.766426 49.121552 22.893581 50.982048 25.372208 50.869457C 27.850836 50.756866 29.80055 48.711174 29.794001 46.23L 29.794001 38.136002C 29.799276 36.292 28.789169 34.594776 27.165834 33.720047C 25.5425 32.845318 23.569477 32.935089 22.032284 33.953625C 20.495092 34.97216 19.643288 36.754097 19.816 38.59ZM 47.452 46.650002C 47.233574 49.121552 45.106419 50.982048 42.627792 50.869457C 40.149162 50.756866 38.199448 48.711174 38.206001 46.23L 38.206001 38.136002C 38.200722 36.292 39.210831 34.594776 40.834167 33.720047C 42.4575 32.845318 44.430527 32.935089 45.967716 33.953625C 47.50491 34.97216 48.356712 36.754097 48.184002 38.59ZM 32 27L 34 21L 36 27M 34 18L 34 15M 39 18.466L 39.554001 15.518M 43.826 19.852001L 44.919998 17.058001M 29 18.466L 28.445999 15.518M 24.174 19.852001L 23.082001 17.058001"></path></g></g></g><g id="g-root-2_1lvi9qw1r15o99-stroke" data-item-order="0" data-item-id="2_1lvi9qw1r15o99" data-item-class="Icon Stroke Indexed InsideFill InsideColorFill ColorStrokeGray" data-item-index="5" data-renderer-id="0" transform="translate(149, 174)"><g id="2_1lvi9qw1r15o99-stroke" fill="none" stroke-linecap="round" stroke-linejoin="round" stroke-miterlimit="4" stroke="#FFFFFF" stroke-width="2"><g><path d="M 36.136002 38.368L 28.546 39.454002L 29.632 31.864L 49.147999 12.348C 50.301521 11.145902 52.01487 10.661475 53.62706 11.081607C 55.239246 11.501738 56.49826 12.760751 56.918392 14.372938C 57.33852 15.985126 56.854095 17.698475 55.651997 18.851999ZM 34 21L 15 21C 12.790861 21 11 22.790861 11 25L 11 53C 11 55.209141 12.790861 57 15 57L 43 57C 45.209141 57 47 55.209141 47 53L 47 34"></path></g></g></g><g id="g-root-gym_mdkpug1r15pts-stroke" data-item-order="0" data-item-id="gym_mdkpug1r15pts" data-item-class="Icon Stroke Indexed InsideFill InsideColorFill ColorStrokeGray" data-item-index="2" data-renderer-id="0" transform="translate(419, 174)"><g id="gym_mdkpug1r15pts-stroke" fill="none" stroke-linecap="round" stroke-linejoin="round" stroke-miterlimit="4" stroke="#FFFFFF" stroke-width="2"><g><path d="M 52 30.125999C 52 42.580002 37.757999 54.242001 34.610001 56.666C 34.250435 56.942799 33.749565 56.942799 33.389999 56.666C 30.243999 54.243999 16 42.580002 16 30.125999C 16 19.633999 23.506001 11.126 34 11.126C 44.493999 11.126 52 19.633999 52 30.125999ZM 44 31.125999L 46.006001 31.125999M 29.997999 31.125999L 38 31.125999M 22.006001 31.125999L 23.998001 31.125999M 26.006001 25.125999L 28.006001 25.125999C 28.006001 25.125999 30.006001 25.125999 30.006001 27.125999L 30.006001 35.125999C 30.006001 35.125999 30.006001 37.125999 28.006001 37.125999L 26.006001 37.125999C 26.006001 37.125999 24.006001 37.125999 24.006001 35.125999L 24.006001 27.125999C 24.006001 27.125999 24.006001 25.125999 26.006001 25.125999M 40.006001 25.125999L 42.006001 25.125999C 42.006001 25.125999 44.006001 25.125999 44.006001 27.125999L 44.006001 35.125999C 44.006001 35.125999 44.006001 37.125999 42.006001 37.125999L 40.006001 37.125999C 40.006001 37.125999 38.006001 37.125999 38.006001 35.125999L 38.006001 27.125999C 38.006001 27.125999 38.006001 25.125999 40.006001 25.125999"></path></g></g></g><g id="g-root-tx_adjustpl_1qeg5aw1r12waz-stroke" data-item-order="0" data-item-id="tx_adjustpl_1qeg5aw1r12waz" data-item-class="Label Stroke Indexed" data-item-index="5" data-renderer-id="0" transform="translate(2, 188)"></g><g id="g-root-tx_createcu_v2yz881r148hy-stroke" data-item-order="0" data-item-id="tx_createcu_v2yz881r148hy" data-item-class="Label Stroke Indexed" data-item-index="2" data-renderer-id="0" transform="translate(494, 176)"></g><g id="g-root-2_18k1rdk1r15pu6-stroke" data-item-order="0" data-item-id="2_18k1rdk1r15pu6" data-item-class="Icon Stroke Indexed InsideFill InsideColorFill ColorStrokeGray" data-item-index="4" data-renderer-id="0" transform="translate(200, 335)"><g id="2_18k1rdk1r15pu6-stroke" fill="none" stroke-linecap="round" stroke-linejoin="round" stroke-miterlimit="4" stroke="#FFFFFF" stroke-width="2"><g><path d="M 43.007999 14L 49.007999 14L 49.007999 20M 12 28L 20.633999 21.962C 21.428761 21.406044 22.50787 21.500465 23.194 22.186001L 23.810001 22.802C 24.50103 23.493176 25.590389 23.583675 26.386 23.015999L 30.785999 19.880001C 31.513363 19.360348 32.497242 19.386477 33.195999 19.944L 35.795998 22.032C 36.5084 22.602013 37.516266 22.617645 38.246002 22.07L 49 14M 19 47C 19 46.447716 18.552284 46 18 46L 14 46C 13.447716 46 13 46.447716 13 47L 13 54L 19 54ZM 31 37C 31 36.447716 30.552284 36 30 36L 26 36C 25.447716 36 25 36.447716 25 37L 25 54L 31 54ZM 43 43C 43 42.447716 42.552284 42 42 42L 38 42C 37.447716 42 37 42.447716 37 43L 37 54L 43 54ZM 55 27C 55 26.447716 54.552284 26 54 26L 50 26C 49.447716 26 49 26.447716 49 27L 49 54L 55 54ZM 11.008 54L 57.007999 54"></path></g></g></g><g id="g-root-heal_v97q3c1r15o9b-stroke" data-item-order="0" data-item-id="heal_v97q3c1r15o9b" data-item-class="Icon Stroke Indexed InsideFill InsideColorFill ColorStrokeGray" data-item-index="3" data-renderer-id="0" transform="translate(368, 335)"><g id="heal_v97q3c1r15o9b-stroke" fill="none" stroke-linecap="round" stroke-linejoin="round" stroke-miterlimit="4" stroke="#FFFFFF" stroke-width="2"><g><path d="M 11 19C 11 23.418278 13.686292 27 17 27C 20.313709 27 23 23.418278 23 19C 23 14.581722 20.313709 11 17 11C 13.686292 11 11 14.581722 11 19ZM 17 27L 17 57M 41 11.126L 41 19.125999C 41 23.544277 44.581722 27.125999 49 27.125999C 53.418278 27.125999 57 23.544277 57 19.125999L 57 11.126M 49 11L 49 57M 43 36C 43 35.447716 42.552284 35 42 35L 37 35L 37 30C 37 29.447716 36.552284 29 36 29L 30 29C 29.447716 29 29 29.447716 29 30L 29 35L 24 35C 23.447716 35 23 35.447716 23 36L 23 42C 23 42.552284 23.447716 43 24 43L 29 43L 29 48C 29 48.552284 29.447716 49 30 49L 36 49C 36.552284 49 37 48.552284 37 48L 37 43L 42 43C 42.552284 43 43 42.552284 43 42Z"></path></g></g></g><g id="g-root-tx_monitorp_1lz949k1r12txg-stroke" data-item-order="0" data-item-id="tx_monitorp_1lz949k1r12txg" data-item-class="Label Stroke Indexed" data-item-index="4" data-renderer-id="0" transform="translate(140, 410)"></g><g id="g-root-tx_implemen_18nslw81r12vid-stroke" data-item-order="0" data-item-id="tx_implemen_18nslw81r12vid" data-item-class="Label Stroke Indexed" data-item-index="3" data-renderer-id="0" transform="translate(392, 410)"></g></g></g></svg>