<?xml version="1.0" encoding="utf-8" standalone="yes"?>
<!DOCTYPE svg PUBLIC "-//W3C//DTD SVG 1.1//EN" "http://www.w3.org/Graphics/SVG/1.1/DTD/svg11.dtd">
<svg width="463" height="339" viewBox="0 0 463 339" style="fill:none;stroke:none;fill-rule:evenodd;clip-rule:evenodd;stroke-linecap:round;stroke-linejoin:round;stroke-miterlimit:1.5;" version="1.1" xmlns="http://www.w3.org/2000/svg" xmlns:xlink="http://www.w3.org/1999/xlink"><style id="fontImports">@import url("https://fonts.googleapis.com/css2?family=Roboto:wght@400;700&amp;display=block");</style><g id="items" style="isolation: isolate"><g id="blend" style="mix-blend-mode:screen"><g id="g-root--1.line_sy_1d3mq5k1qr622v-fill" data-item-order="-85132" data-item-id="-1.line_sy_1d3mq5k1qr622v" data-item-class="Part Stroke ColorStrokeGray" data-item-index="-1" data-renderer-id="0" transform="translate(370.767333984375, 159.41455078125)"></g><g id="g-root--1.vector_sy_18nt8141qr62v4-fill" data-item-order="-85130" data-item-id="-1.vector_sy_18nt8141qr62v4" data-item-class="Part Stroke ColorStrokeGray" data-item-index="-1" data-renderer-id="0" transform="translate(3, 159.41455078125)"></g><g id="g-root-4.cr-big_cr_1q6clbc1qr7h8q-fill" data-item-order="-85129" data-item-id="4.cr-big_cr_1q6clbc1qr7h8q" data-item-class="Shape Stroke Fill Part Indexed" data-item-index="4" data-renderer-id="0" transform="translate(331.255126953125, 183.731689453125)"><g id="4.cr-big_cr_1q6clbc1qr7h8q-fill" stroke="none" fill="url(#gradient-17afe2-38714328)"><g><path d="M 10.004858 46.473585C 10.004859 66.61817 26.335272 82.948583 46.479857 82.948583C 66.624443 82.948583 82.954856 66.61817 82.954856 46.473585C 82.954856 26.329 66.624443 9.998587 46.479857 9.998587C 26.335272 9.998587 10.004859 26.329 10.004859 46.473585"></path></g></g></g><g id="g-root-4.cu-smallCircle_sy_1lqj36w1qr7i0z-fill" data-item-order="-85126" data-item-id="4.cu-smallCircle_sy_1lqj36w1qr7i0z" data-item-class="Part Indexed Stroke ColorStrokeGray" data-item-index="4" data-renderer-id="0" transform="translate(364.68853759765625, 156.381103515625)"></g><g id="g-root-4.ln_ln_1lqj36w1qr7i10-fill" data-item-order="-85124" data-item-id="4.ln_ln_1lqj36w1qr7i10" data-item-class="Curve Stroke Part Indexed ColorStrokeGray" data-item-index="4" data-renderer-id="0" transform="translate(367.7279052734375, 162.4599609375)"></g><g id="g-root-3.cr-big_cr_8vw2qw1qr7i8f-fill" data-item-order="-85123" data-item-id="3.cr-big_cr_8vw2qw1qr7i8f" data-item-class="Shape Stroke Fill Part Indexed" data-item-index="3" data-renderer-id="0" transform="translate(233.994384765625, 62.15771484375)"><g id="3.cr-big_cr_8vw2qw1qr7i8f-fill" stroke="none" fill="url(#gradient-92c031-119406507)"><g><path d="M 9.995642 46.469521C 9.995643 66.614106 26.326056 82.944519 46.470642 82.944519C 66.615227 82.944519 82.94564 66.614106 82.94564 46.46952C 82.94564 26.324935 66.615227 9.994522 46.470642 9.994522C 26.326056 9.994522 9.995643 26.324935 9.995643 46.46952"></path></g></g></g><g id="g-root-3.cu-smallCircle_sy_4g2kmg1qr7j0o-fill" data-item-order="-85120" data-item-id="3.cu-smallCircle_sy_4g2kmg1qr7j0o" data-item-class="Part Indexed Stroke ColorStrokeGray" data-item-index="3" data-renderer-id="0" transform="translate(267.427734375, 156.375244140625)"></g><g id="g-root-3.ln_ln_vjl41qr7gn5-fill" data-item-order="-85118" data-item-id="3.ln_ln_vjl41qr7gn5" data-item-class="Curve Stroke Part Indexed ColorStrokeGray" data-item-index="3" data-renderer-id="0" transform="translate(270.4671630859375, 135.103271484375)"></g><g id="g-root-2.cr-big_cr_hrj2zs1qr7hfo-fill" data-item-order="-85117" data-item-id="2.cr-big_cr_hrj2zs1qr7hfo" data-item-class="Shape Stroke Fill Part Indexed" data-item-index="2" data-renderer-id="0" transform="translate(136.73358154296875, 183.733642578125)"><g id="2.cr-big_cr_hrj2zs1qr7hfo-fill" stroke="none" fill="url(#gradient-3bc382-226276808)"><g><path d="M 9.996422 46.473559C 9.996423 66.618144 26.326836 82.948557 46.471422 82.948557C 66.616007 82.948557 82.94642 66.618144 82.94642 46.473558C 82.94642 26.328973 66.616007 9.99856 46.471422 9.99856C 26.326836 9.99856 9.996423 26.328973 9.996423 46.473558"></path></g></g></g><g id="g-root-2.cu-smallCircle_sy_hrj2zs1qr7hfp-fill" data-item-order="-85114" data-item-id="2.cu-smallCircle_sy_hrj2zs1qr7hfp" data-item-class="Part Indexed Stroke ColorStrokeGray" data-item-index="2" data-renderer-id="0" transform="translate(170.1669921875, 156.381103515625)"></g><g id="g-root-2.ln_ln_8vw2qw1qr7i8e-fill" data-item-order="-85112" data-item-id="2.ln_ln_8vw2qw1qr7i8e" data-item-class="Curve Stroke Part Indexed ColorStrokeGray" data-item-index="2" data-renderer-id="0" transform="translate(173.20635986328125, 162.4599609375)"></g><g id="g-root-1.cr-big_cr_18nt8141qr62v5-fill" data-item-order="-85111" data-item-id="1.cr-big_cr_18nt8141qr62v5" data-item-class="Shape Stroke Fill Part Indexed Indexed_1" data-item-index="1" data-renderer-id="0" transform="translate(39.4727783203125, 62.15771484375)"><defs><linearGradient id="gradient-17afe2-38714328" x2="0" y2="1"><stop offset="0" stop-color="#1AC6FF"></stop><stop offset="1" stop-color="#1498c4"></stop></linearGradient><linearGradient id="gradient-92c031-119406507" x2="0" y2="1"><stop offset="0" stop-color="#A8DD38"></stop><stop offset="1" stop-color="#7ba229"></stop></linearGradient><linearGradient id="gradient-3bc382-226276808" x2="0" y2="1"><stop offset="0" stop-color="#44E095"></stop><stop offset="1" stop-color="#32a56e"></stop></linearGradient><linearGradient id="gradient-4681e2-392446692" x2="0" y2="1"><stop offset="0" stop-color="#4F92FF"></stop><stop offset="1" stop-color="#3d70c4"></stop></linearGradient></defs><g id="1.cr-big_cr_18nt8141qr62v5-fill" stroke="none" fill="url(#gradient-4681e2-392446692)"><g><path d="M 9.997206 46.469521C 9.997208 66.614106 26.327621 82.944519 46.472206 82.944519C 66.616791 82.944519 82.947205 66.614106 82.947205 46.46952C 82.947205 26.324935 66.616791 9.994522 46.472206 9.994522C 26.327621 9.994522 9.997208 26.324935 9.997208 46.46952"></path></g></g></g><g id="g-root-1.cu-smallCircle_sy_vccpns1qr64g2-fill" data-item-order="-85108" data-item-id="1.cu-smallCircle_sy_vccpns1qr64g2" data-item-class="Part Indexed Indexed_1 Stroke ColorStrokeGray" data-item-index="1" data-renderer-id="0" transform="translate(72.90618896484375, 156.375244140625)"></g><g id="g-root-1.ln_ln_m7cl481qr7gnf-fill" data-item-order="-85106" data-item-id="1.ln_ln_m7cl481qr7gnf" data-item-class="Curve Stroke Part Indexed Indexed_1 ColorStrokeGray" data-item-index="1" data-renderer-id="0" transform="translate(75.94558715820312, 135.103271484375)"></g><g id="g-root-tx_needfora_1lseig81qr7h1c-fill" data-item-order="0" data-item-id="tx_needfora_1lseig81qr7h1c" data-item-class="Label Stroke Indexed Indexed_1" data-item-index="1" data-renderer-id="0" transform="translate(21.945587158203125, 2)"><g id="tx_needfora_1lseig81qr7h1c-fill" stroke="none" fill="#000000"><g><text style="font: 20px Roboto, sans-serif; white-space: pre;"><tspan x="25.6" y="34" dominant-baseline="ideographic">Need for </tspan><tspan x="14.83" y="58" dominant-baseline="ideographic">Assistance</tspan></text></g></g></g><g id="g-root-tx_receivin_8xri081qr7h8u-fill" data-item-order="0" data-item-id="tx_receivin_8xri081qr7h8u" data-item-class="Label Stroke Indexed" data-item-index="3" data-renderer-id="0" transform="translate(198.4671630859375, 26)"><g id="tx_receivin_8xri081qr7h8u-fill" stroke="none" fill="#000000"><g><text style="font: 20px Roboto, sans-serif; white-space: pre;"><tspan x="16.24" y="34" dominant-baseline="ideographic">Receiving Help</tspan></text></g></g></g><g id="g-root-sos_1qbyy941qqs1e1-fill" data-item-order="0" data-item-id="sos_1qbyy941qqs1e1" data-item-class="Icon Stroke Indexed Indexed_1 InsideFill InsideColorFill ColorStrokeGray" data-item-index="1" data-renderer-id="0" transform="translate(51.630401611328125, 74.315185546875)"></g><g id="g-root-1_v9uwh41qqs26b-fill" data-item-order="0" data-item-id="1_v9uwh41qqs26b" data-item-class="Icon Stroke Indexed InsideFill InsideColorFill ColorStrokeGray" data-item-index="3" data-renderer-id="0" transform="translate(246.1519775390625, 74.315185546875)"></g><g id="g-root-targ_hu12i01qqs0en-fill" data-item-order="0" data-item-id="targ_hu12i01qqs0en" data-item-class="Icon Stroke Indexed InsideFill InsideColorFill ColorStrokeGray" data-item-index="2" data-renderer-id="0" transform="translate(148.89117431640625, 195.891357421875)"></g><g id="g-root-5_v8lyaw1qqs007-fill" data-item-order="0" data-item-id="5_v8lyaw1qqs007" data-item-class="Icon Stroke Indexed InsideFill InsideColorFill ColorStrokeGray" data-item-index="4" data-renderer-id="0" transform="translate(343.4127197265625, 195.891357421875)"></g><g id="g-root-tx_accessin_1unf1m01qr7imn-fill" data-item-order="0" data-item-id="tx_accessin_1unf1m01qr7imn" data-item-class="Label Stroke Indexed" data-item-index="2" data-renderer-id="0" transform="translate(119.20635986328125, 268.8369140625)"><g id="tx_accessin_1unf1m01qr7imn-fill" stroke="none" fill="#000000"><g><text style="font: 20px Roboto, sans-serif; white-space: pre;"><tspan x="15.36" y="34" dominant-baseline="ideographic">Accessing </tspan><tspan x="19.63" y="58" dominant-baseline="ideographic">Guidance</tspan></text></g></g></g><g id="g-root-tx_convenie_v48jjc1qr7i11-fill" data-item-order="0" data-item-id="tx_convenie_v48jjc1qr7i11" data-item-class="Label Stroke Indexed" data-item-index="4" data-renderer-id="0" transform="translate(295.7279052734375, 268.8369140625)"><g id="tx_convenie_v48jjc1qr7i11-fill" stroke="none" fill="#000000"><g><text style="font: 20px Roboto, sans-serif; white-space: pre;"><tspan x="11.88" y="34" dominant-baseline="ideographic">Convenience of </tspan><tspan x="48.01" y="58" dominant-baseline="ideographic">Access</tspan></text></g></g></g><g id="g-root--1.line_sy_1d3mq5k1qr622v-stroke" data-item-order="-85132" data-item-id="-1.line_sy_1d3mq5k1qr622v" data-item-class="Part Stroke ColorStrokeGray" data-item-index="-1" data-renderer-id="0" transform="translate(370.767333984375, 159.41455078125)"><g id="-1.line_sy_1d3mq5k1qr622v-stroke" fill="none" stroke-linecap="round" stroke-linejoin="round" stroke-miterlimit="4" stroke="#FFFFFF" stroke-width="2"><g><path d="M 77.902686 10.002686L 10.002686 10.002686"></path><path d="M 71.902686 16.502686L 78.402686 10.002686L 71.902686 3.502686" stroke-dasharray="none"></path></g></g></g><g id="g-root--1.vector_sy_18nt8141qr62v4-stroke" data-item-order="-85130" data-item-id="-1.vector_sy_18nt8141qr62v4" data-item-class="Part Stroke ColorStrokeGray" data-item-index="-1" data-renderer-id="0" transform="translate(3, 159.41455078125)"><g id="-1.vector_sy_18nt8141qr62v4-stroke" fill="none" stroke-linecap="round" stroke-linejoin="round" stroke-miterlimit="4" stroke="#FFFFFF" stroke-width="2"><g><path d="M 79.903763 10L 10 10M 177.16452 10L 85.982559 10M 274.427765 10L 183.245758 10M 371.688538 10L 280.506561 10"></path></g></g></g><g id="g-root-4.cr-big_cr_1q6clbc1qr7h8q-stroke" data-item-order="-85129" data-item-id="4.cr-big_cr_1q6clbc1qr7h8q" data-item-class="Shape Stroke Fill Part Indexed" data-item-index="4" data-renderer-id="0" transform="translate(331.255126953125, 183.731689453125)"><g id="4.cr-big_cr_1q6clbc1qr7h8q-stroke" fill="none" stroke-linecap="round" stroke-linejoin="round" stroke-miterlimit="4" stroke="#ffffff" stroke-width="2"><g><path d="M 10.004858 46.473585C 10.004859 66.61817 26.335272 82.948583 46.479857 82.948583C 66.624443 82.948583 82.954856 66.61817 82.954856 46.473585C 82.954856 26.329 66.624443 9.998587 46.479857 9.998587C 26.335272 9.998587 10.004859 26.329 10.004859 46.473585"></path></g></g></g><g id="g-root-4.cu-smallCircle_sy_1lqj36w1qr7i0z-stroke" data-item-order="-85126" data-item-id="4.cu-smallCircle_sy_1lqj36w1qr7i0z" data-item-class="Part Indexed Stroke ColorStrokeGray" data-item-index="4" data-renderer-id="0" transform="translate(364.68853759765625, 156.381103515625)"><g id="4.cu-smallCircle_sy_1lqj36w1qr7i0z-stroke" fill="none" stroke-linecap="round" stroke-linejoin="round" stroke-miterlimit="4" stroke="#FFFFFF" stroke-width="2"><g><path d="M 10.00001 13.039408C 10.00001 11.360757 11.360728 10.000009 13.039411 10.000009C 14.718093 10.000009 16.07881 11.360757 16.07881 13.039408C 16.07881 14.718059 14.718093 16.078808 13.039411 16.078808C 11.360728 16.078808 10.00001 14.718059 10.00001 13.039408Z"></path></g></g></g><g id="g-root-4.ln_ln_1lqj36w1qr7i10-stroke" data-item-order="-85124" data-item-id="4.ln_ln_1lqj36w1qr7i10" data-item-class="Curve Stroke Part Indexed ColorStrokeGray" data-item-index="4" data-renderer-id="0" transform="translate(367.7279052734375, 162.4599609375)"><g id="4.ln_ln_1lqj36w1qr7i10-stroke" fill="none" stroke-linecap="round" stroke-linejoin="round" stroke-miterlimit="4" stroke="#FFFFFF" stroke-width="2"><g><path d="M 10 31.3L 10 20.6L 10 10"></path></g></g></g><g id="g-root-3.cr-big_cr_8vw2qw1qr7i8f-stroke" data-item-order="-85123" data-item-id="3.cr-big_cr_8vw2qw1qr7i8f" data-item-class="Shape Stroke Fill Part Indexed" data-item-index="3" data-renderer-id="0" transform="translate(233.994384765625, 62.15771484375)"><g id="3.cr-big_cr_8vw2qw1qr7i8f-stroke" fill="none" stroke-linecap="round" stroke-linejoin="round" stroke-miterlimit="4" stroke="#ffffff" stroke-width="2"><g><path d="M 9.995642 46.469521C 9.995643 66.614106 26.326056 82.944519 46.470642 82.944519C 66.615227 82.944519 82.94564 66.614106 82.94564 46.46952C 82.94564 26.324935 66.615227 9.994522 46.470642 9.994522C 26.326056 9.994522 9.995643 26.324935 9.995643 46.46952"></path></g></g></g><g id="g-root-3.cu-smallCircle_sy_4g2kmg1qr7j0o-stroke" data-item-order="-85120" data-item-id="3.cu-smallCircle_sy_4g2kmg1qr7j0o" data-item-class="Part Indexed Stroke ColorStrokeGray" data-item-index="3" data-renderer-id="0" transform="translate(267.427734375, 156.375244140625)"><g id="3.cu-smallCircle_sy_4g2kmg1qr7j0o-stroke" fill="none" stroke-linecap="round" stroke-linejoin="round" stroke-miterlimit="4" stroke="#FFFFFF" stroke-width="2"><g><path d="M 16.078798 13.039392C 16.078798 14.718042 14.71805 16.078791 13.039398 16.078791C 11.360747 16.078791 9.999999 14.718042 9.999999 13.039392C 9.999999 11.360741 11.360747 9.999992 13.039398 9.999992C 14.71805 9.999992 16.078798 11.360741 16.078798 13.039392Z"></path></g></g></g><g id="g-root-3.ln_ln_vjl41qr7gn5-stroke" data-item-order="-85118" data-item-id="3.ln_ln_vjl41qr7gn5" data-item-class="Curve Stroke Part Indexed ColorStrokeGray" data-item-index="3" data-renderer-id="0" transform="translate(270.4671630859375, 135.103271484375)"><g id="3.ln_ln_vjl41qr7gn5-stroke" fill="none" stroke-linecap="round" stroke-linejoin="round" stroke-miterlimit="4" stroke="#FFFFFF" stroke-width="2"><g><path d="M 10 10L 10 20.6L 10 31.3"></path></g></g></g><g id="g-root-2.cr-big_cr_hrj2zs1qr7hfo-stroke" data-item-order="-85117" data-item-id="2.cr-big_cr_hrj2zs1qr7hfo" data-item-class="Shape Stroke Fill Part Indexed" data-item-index="2" data-renderer-id="0" transform="translate(136.73358154296875, 183.733642578125)"><g id="2.cr-big_cr_hrj2zs1qr7hfo-stroke" fill="none" stroke-linecap="round" stroke-linejoin="round" stroke-miterlimit="4" stroke="#ffffff" stroke-width="2"><g><path d="M 9.996422 46.473559C 9.996423 66.618144 26.326836 82.948557 46.471422 82.948557C 66.616007 82.948557 82.94642 66.618144 82.94642 46.473558C 82.94642 26.328973 66.616007 9.99856 46.471422 9.99856C 26.326836 9.99856 9.996423 26.328973 9.996423 46.473558"></path></g></g></g><g id="g-root-2.cu-smallCircle_sy_hrj2zs1qr7hfp-stroke" data-item-order="-85114" data-item-id="2.cu-smallCircle_sy_hrj2zs1qr7hfp" data-item-class="Part Indexed Stroke ColorStrokeGray" data-item-index="2" data-renderer-id="0" transform="translate(170.1669921875, 156.381103515625)"><g id="2.cu-smallCircle_sy_hrj2zs1qr7hfp-stroke" fill="none" stroke-linecap="round" stroke-linejoin="round" stroke-miterlimit="4" stroke="#FFFFFF" stroke-width="2"><g><path d="M 9.999988 13.039408C 9.999988 11.360757 11.360736 10.000009 13.039387 10.000009C 14.718039 10.000009 16.078787 11.360757 16.078787 13.039408C 16.078787 14.718059 14.718039 16.078808 13.039387 16.078808C 11.360736 16.078808 9.999988 14.718059 9.999988 13.039408Z"></path></g></g></g><g id="g-root-2.ln_ln_8vw2qw1qr7i8e-stroke" data-item-order="-85112" data-item-id="2.ln_ln_8vw2qw1qr7i8e" data-item-class="Curve Stroke Part Indexed ColorStrokeGray" data-item-index="2" data-renderer-id="0" transform="translate(173.20635986328125, 162.4599609375)"><g id="2.ln_ln_8vw2qw1qr7i8e-stroke" fill="none" stroke-linecap="round" stroke-linejoin="round" stroke-miterlimit="4" stroke="#FFFFFF" stroke-width="2"><g><path d="M 10 31.3L 10 20.6L 10 10"></path></g></g></g><g id="g-root-1.cr-big_cr_18nt8141qr62v5-stroke" data-item-order="-85111" data-item-id="1.cr-big_cr_18nt8141qr62v5" data-item-class="Shape Stroke Fill Part Indexed Indexed_1" data-item-index="1" data-renderer-id="0" transform="translate(39.4727783203125, 62.15771484375)"><g id="1.cr-big_cr_18nt8141qr62v5-stroke" fill="none" stroke-linecap="round" stroke-linejoin="round" stroke-miterlimit="4" stroke="#ffffff" stroke-width="2"><g><path d="M 9.997206 46.469521C 9.997208 66.614106 26.327621 82.944519 46.472206 82.944519C 66.616791 82.944519 82.947205 66.614106 82.947205 46.46952C 82.947205 26.324935 66.616791 9.994522 46.472206 9.994522C 26.327621 9.994522 9.997208 26.324935 9.997208 46.46952"></path></g></g></g><g id="g-root-1.cu-smallCircle_sy_vccpns1qr64g2-stroke" data-item-order="-85108" data-item-id="1.cu-smallCircle_sy_vccpns1qr64g2" data-item-class="Part Indexed Indexed_1 Stroke ColorStrokeGray" data-item-index="1" data-renderer-id="0" transform="translate(72.90618896484375, 156.375244140625)"><g id="1.cu-smallCircle_sy_vccpns1qr64g2-stroke" fill="none" stroke-linecap="round" stroke-linejoin="round" stroke-miterlimit="4" stroke="#FFFFFF" stroke-width="2"><g><path d="M 16.078806 13.039392C 16.078806 14.718042 14.718073 16.078791 13.039406 16.078791C 11.36074 16.078791 10.000007 14.718042 10.000007 13.039392C 10.000007 11.360741 11.36074 9.999992 13.039406 9.999992C 14.718073 9.999992 16.078806 11.360741 16.078806 13.039392Z"></path></g></g></g><g id="g-root-1.ln_ln_m7cl481qr7gnf-stroke" data-item-order="-85106" data-item-id="1.ln_ln_m7cl481qr7gnf" data-item-class="Curve Stroke Part Indexed Indexed_1 ColorStrokeGray" data-item-index="1" data-renderer-id="0" transform="translate(75.94558715820312, 135.103271484375)"><g id="1.ln_ln_m7cl481qr7gnf-stroke" fill="none" stroke-linecap="round" stroke-linejoin="round" stroke-miterlimit="4" stroke="#FFFFFF" stroke-width="2"><g><path d="M 10 10L 10 20.6L 10 31.3"></path></g></g></g><g id="g-root-tx_needfora_1lseig81qr7h1c-stroke" data-item-order="0" data-item-id="tx_needfora_1lseig81qr7h1c" data-item-class="Label Stroke Indexed Indexed_1" data-item-index="1" data-renderer-id="0" transform="translate(21.945587158203125, 2)"></g><g id="g-root-tx_receivin_8xri081qr7h8u-stroke" data-item-order="0" data-item-id="tx_receivin_8xri081qr7h8u" data-item-class="Label Stroke Indexed" data-item-index="3" data-renderer-id="0" transform="translate(198.4671630859375, 26)"></g><g id="g-root-sos_1qbyy941qqs1e1-stroke" data-item-order="0" data-item-id="sos_1qbyy941qqs1e1" data-item-class="Icon Stroke Indexed Indexed_1 InsideFill InsideColorFill ColorStrokeGray" data-item-index="1" data-renderer-id="0" transform="translate(51.630401611328125, 74.315185546875)"><g id="sos_1qbyy941qqs1e1-stroke" fill="none" stroke-linecap="round" stroke-linejoin="round" stroke-miterlimit="4" stroke="#FFFFFF" stroke-width="2"><g><path d="M 33.993019 27.18882L 33.993019 24.757299C 34.078125 19.675423 29.818911 15.094034 24.664089 15.173059C 19.713921 15.250057 15.608705 19.418087 15.616811 24.372309L 15.616811 28.201952C 15.616811 30.329533 14.887354 32.388218 13.550018 34.039627C 13.299917 34.38739 13.264057 34.845417 13.456987 35.227867C 13.649917 35.610321 14.039594 35.85368 14.467917 35.859211L 30.408554 35.859215M 11.643302 17.624842C 12.894564 15.117991 14.813713 13.005313 17.189192 11.5197M 32.487503 11.5197C 34.848274 13.025876 36.765858 15.13298 38.043526 17.624842M 21.849606 40.56015C 22.195005 41.909626 23.410927 42.853527 24.803902 42.853527C 26.196877 42.853527 27.4128 41.909626 27.758198 40.56015M 38.961426 57.110699L 31.008329 50.851559C 29.970984 49.961403 29.818773 48.412148 30.663046 47.33712C 31.507317 46.2621 33.048504 46.042759 34.159176 46.839554L 39.060711 50.70364L 35.569454 34.371933C 35.275139 32.994911 36.152843 31.640024 37.529869 31.345705C 38.906891 31.051388 40.26178 31.929094 40.556095 33.306118L 42.866039 44.110172L 47.850655 43.044357C 51.522823 42.259747 55.135887 44.600121 55.921276 48.272125L 56.987087 53.256737"></path></g></g></g><g id="g-root-1_v9uwh41qqs26b-stroke" data-item-order="0" data-item-id="1_v9uwh41qqs26b" data-item-class="Icon Stroke Indexed InsideFill InsideColorFill ColorStrokeGray" data-item-index="3" data-renderer-id="0" transform="translate(246.1519775390625, 74.315185546875)"><g id="1_v9uwh41qqs26b-stroke" fill="none" stroke-linecap="round" stroke-linejoin="round" stroke-miterlimit="4" stroke="#FFFFFF" stroke-width="2"><g><path d="M 25.631197 34.315201C 25.631197 39.11124 29.519157 42.999199 34.315197 42.999199C 39.111237 42.999199 42.999195 39.11124 42.999195 34.315201C 42.999195 29.519159 39.111237 25.631199 34.315197 25.631199C 29.519157 25.631199 25.631197 29.519159 25.631197 34.315201M 34.315197 25.631199L 34.315197 11.7368M 42.999195 56.8936L 42.999195 51.683197L 49.946392 51.683197C 51.864811 51.683197 53.419994 50.128017 53.419994 48.209599L 53.419994 34.315201C 53.421329 27.13406 49.395607 20.558716 42.999195 17.294559M 25.631197 17.294559C 19.23209 20.556797 15.203448 27.132528 15.203448 34.315201C 15.203448 41.497875 19.23209 48.073605 25.631197 51.335842L 25.631197 56.8936"></path></g></g></g><g id="g-root-targ_hu12i01qqs0en-stroke" data-item-order="0" data-item-id="targ_hu12i01qqs0en" data-item-class="Icon Stroke Indexed InsideFill InsideColorFill ColorStrokeGray" data-item-index="2" data-renderer-id="0" transform="translate(148.89117431640625, 195.891357421875)"><g id="targ_hu12i01qqs0en-stroke" fill="none" stroke-linecap="round" stroke-linejoin="round" stroke-miterlimit="4" stroke="#FFFFFF" stroke-width="2"><g><path d="M 34.315197 11.013133L 34.315197 18.151669M 11.013133 34.315197L 18.151669 34.315197M 34.315197 57.61726L 34.315197 50.478722M 57.61726 34.315197L 50.478722 34.315197M 15.065666 34.315197C 15.065666 44.946419 23.683973 53.564728 34.315197 53.564728C 44.946419 53.564728 53.564728 44.946419 53.564728 34.315197C 53.564728 23.683973 44.946419 15.065666 34.315197 15.065666C 23.683973 15.065666 15.065666 23.683973 15.065666 34.315197M 44.920673 28.469418L 38.367729 35.026417C 39.683388 38.382591 38.464706 42.201447 35.44817 44.175117C 32.431637 46.148796 28.444336 45.736137 25.895929 43.186531C 23.347521 40.636925 22.936741 36.649433 24.911835 33.633827C 26.886929 30.618219 30.706356 29.401333 34.061913 30.718575L 40.614857 24.163601L 44.969303 24.163601ZM 30.390318 37.802399C 30.390249 38.294842 30.789433 38.69408 31.281876 38.69408C 31.774317 38.69408 32.1735 38.294842 32.173431 37.802399C 32.1735 37.309959 31.774317 36.910721 31.281876 36.910721C 30.789433 36.910721 30.390249 37.309959 30.390318 37.802399"></path></g></g></g><g id="g-root-5_v8lyaw1qqs007-stroke" data-item-order="0" data-item-id="5_v8lyaw1qqs007" data-item-class="Icon Stroke Indexed InsideFill InsideColorFill ColorStrokeGray" data-item-index="4" data-renderer-id="0" transform="translate(343.4127197265625, 195.891357421875)"><g id="5_v8lyaw1qqs007-stroke" fill="none" stroke-linecap="round" stroke-linejoin="round" stroke-miterlimit="4" stroke="#FFFFFF" stroke-width="2"><g><path d="M 22.157598 36.051994L 25.631197 36.051994C 25.631197 36.051994 29.104797 36.051994 29.104797 39.525597L 29.104797 53.419994C 29.104797 53.419994 29.104797 56.893593 25.631197 56.893593L 22.157598 56.893593C 22.157598 56.893593 18.683998 56.893593 18.683998 53.419994L 18.683998 39.525597C 18.683998 39.525597 18.683998 36.051994 22.157598 36.051994M 42.999195 36.051994L 46.472794 36.051994C 46.472794 36.051994 49.946392 36.051994 49.946392 39.525597L 49.946392 53.419994C 49.946392 53.419994 49.946392 56.893593 46.472794 56.893593L 42.999195 56.893593C 42.999195 56.893593 39.525597 56.893593 39.525597 53.419994L 39.525597 39.525597C 39.525597 39.525597 39.525597 36.051994 42.999195 36.051994M 11.736799 42.999195L 11.736799 34.315197C 11.7368 21.845493 21.845493 11.7368 34.315197 11.7368C 46.784901 11.7368 56.893593 21.845493 56.893593 34.315197L 56.893593 42.999195"></path></g></g></g><g id="g-root-tx_accessin_1unf1m01qr7imn-stroke" data-item-order="0" data-item-id="tx_accessin_1unf1m01qr7imn" data-item-class="Label Stroke Indexed" data-item-index="2" data-renderer-id="0" transform="translate(119.20635986328125, 268.8369140625)"></g><g id="g-root-tx_convenie_v48jjc1qr7i11-stroke" data-item-order="0" data-item-id="tx_convenie_v48jjc1qr7i11" data-item-class="Label Stroke Indexed" data-item-index="4" data-renderer-id="0" transform="translate(295.7279052734375, 268.8369140625)"></g></g></g></svg>